<svg width="241" height="191" viewBox="0 0 241 191" fill="none" xmlns="http://www.w3.org/2000/svg">
<g clip-path="url(#clip0_65_122)">
<path d="M120.775 6.2966C120.764 6.91571 120.631 7.52658 120.384 8.09432C120.137 8.66206 119.78 9.17554 119.335 9.60544C118.889 10.0353 118.363 10.3732 117.787 10.5998C117.21 10.8264 116.595 10.9372 115.976 10.9259H93.7125C93.6319 10.9239 93.5512 10.9218 93.4705 10.9156C93.2619 10.9021 93.0545 10.8738 92.85 10.8308V2.94973C92.8498 2.6344 92.9461 2.32654 93.1257 2.0674C93.3054 1.80825 93.5599 1.61018 93.8553 1.49969H116.146C117.395 1.52332 118.584 2.04163 119.452 2.94091C120.32 3.84019 120.796 5.04701 120.775 6.2966Z" fill="#E6E6E6"/>
<path d="M238.317 0.989147H94.7348C94.4254 0.988233 94.1186 1.04518 93.8301 1.15706C93.3408 1.34009 92.9191 1.66822 92.6215 2.09753C92.3238 2.52684 92.1645 3.03683 92.1647 3.55923V160.163C92.1649 160.844 92.4358 161.498 92.9177 161.98C93.3996 162.462 94.0532 162.733 94.7348 162.733H238.317C238.998 162.733 239.652 162.462 240.134 161.98C240.616 161.498 240.886 160.844 240.887 160.163V3.55923C240.886 2.87767 240.616 2.22411 240.134 1.74218C239.652 1.26025 238.998 0.989394 238.317 0.989147ZM239.859 160.163C239.858 160.572 239.695 160.963 239.406 161.252C239.117 161.542 238.725 161.704 238.317 161.705H94.7348C94.326 161.704 93.9341 161.542 93.645 161.252C93.356 160.963 93.1933 160.572 93.1927 160.163V3.55923C93.1933 3.15044 93.356 2.75857 93.645 2.46951C93.9341 2.18046 94.326 2.01779 94.7348 2.01718H238.317C238.725 2.01779 239.117 2.18046 239.406 2.46951C239.695 2.75857 239.858 3.15044 239.859 3.55923V160.163Z" fill="#E6E6E6"/>
<path d="M162.111 54.7968C163.974 54.7968 165.484 53.2867 165.484 51.4238C165.484 49.561 163.974 48.0508 162.111 48.0508C160.248 48.0508 158.738 49.561 158.738 51.4238C158.738 53.2867 160.248 54.7968 162.111 54.7968Z" fill="#14BA6D"/>
<path d="M176.165 54.7968C178.028 54.7968 179.538 53.2867 179.538 51.4238C179.538 49.561 178.028 48.0508 176.165 48.0508C174.302 48.0508 172.792 49.561 172.792 51.4238C172.792 53.2867 174.302 54.7968 176.165 54.7968Z" fill="#14BA6D"/>
<path d="M134.003 82.6699C135.866 82.6699 137.376 81.1598 137.376 79.2969C137.376 77.4341 135.866 75.924 134.003 75.924C132.14 75.924 130.63 77.4341 130.63 79.2969C130.63 81.1598 132.14 82.6699 134.003 82.6699Z" fill="#14BA6D"/>
<path d="M148.057 82.6699C149.92 82.6699 151.43 81.1598 151.43 79.2969C151.43 77.4341 149.92 75.924 148.057 75.924C146.194 75.924 144.684 77.4341 144.684 79.2969C144.684 81.1598 146.194 82.6699 148.057 82.6699Z" fill="#14BA6D"/>
<path d="M162.111 96.6064C163.974 96.6064 165.484 95.0963 165.484 93.2335C165.484 91.3706 163.974 89.8605 162.111 89.8605C160.248 89.8605 158.738 91.3706 158.738 93.2335C158.738 95.0963 160.248 96.6064 162.111 96.6064Z" fill="#14BA6D"/>
<path d="M176.165 96.6064C178.028 96.6064 179.538 95.0963 179.538 93.2335C179.538 91.3706 178.028 89.8605 176.165 89.8605C174.302 89.8605 172.792 91.3706 172.792 93.2335C172.792 95.0963 174.302 96.6064 176.165 96.6064Z" fill="#14BA6D"/>
<path d="M190.219 96.6064C192.082 96.6064 193.592 95.0963 193.592 93.2335C193.592 91.3706 192.082 89.8605 190.219 89.8605C188.357 89.8605 186.846 91.3706 186.846 93.2335C186.846 95.0963 188.357 96.6064 190.219 96.6064Z" fill="#14BA6D"/>
<path d="M105.701 3.48125C105.626 3.55644 105.583 3.65841 105.583 3.76475C105.583 3.87108 105.626 3.97306 105.701 4.04826L107.422 5.76952H103.178C103.072 5.76983 102.97 5.81221 102.895 5.88737C102.82 5.96253 102.778 6.06433 102.778 6.17047C102.778 6.2766 102.82 6.37841 102.895 6.45357C102.97 6.52873 103.072 6.57111 103.178 6.57142H107.422L105.701 8.29265C105.626 8.36784 105.583 8.46982 105.583 8.57616C105.583 8.6825 105.626 8.78448 105.701 8.85967C105.776 8.93486 105.878 8.97711 105.984 8.97711C106.091 8.97711 106.193 8.93487 106.268 8.85968L108.674 6.45399C108.749 6.37879 108.791 6.27681 108.791 6.17047C108.791 6.06413 108.749 5.96215 108.674 5.88695L106.268 3.48125C106.193 3.40607 106.091 3.36383 105.984 3.36383C105.878 3.36383 105.776 3.40607 105.701 3.48125Z" fill="white"/>
<path d="M207.355 58.62H116.787C116.436 58.62 116.152 58.4666 116.152 58.2773C116.152 58.0881 116.436 57.9346 116.787 57.9346H207.355C207.705 57.9346 207.989 58.0881 207.989 58.2773C207.989 58.4666 207.705 58.62 207.355 58.62Z" fill="#E6E6E6"/>
<path d="M207.355 43.4811H116.787C116.436 43.4811 116.152 43.3277 116.152 43.1385C116.152 42.9492 116.436 42.7958 116.787 42.7958H207.355C207.705 42.7958 207.989 42.9492 207.989 43.1385C207.989 43.3277 207.705 43.4811 207.355 43.4811Z" fill="#E6E6E6"/>
<path d="M207.646 72.7598H116.576C116.485 72.7598 116.398 72.7237 116.334 72.6594C116.269 72.5951 116.233 72.508 116.233 72.4171C116.233 72.3262 116.269 72.239 116.334 72.1748C116.398 72.1105 116.485 72.0744 116.576 72.0744H207.646C207.737 72.0744 207.824 72.1105 207.889 72.1748C207.953 72.239 207.989 72.3262 207.989 72.4171C207.989 72.508 207.953 72.5951 207.889 72.6594C207.824 72.7237 207.737 72.7598 207.646 72.7598Z" fill="#E6E6E6"/>
<path d="M207.646 86.4668H116.576C116.485 86.4668 116.398 86.4308 116.334 86.3665C116.269 86.3022 116.233 86.2151 116.233 86.1242C116.233 86.0333 116.269 85.9461 116.334 85.8819C116.398 85.8176 116.485 85.7815 116.576 85.7815H207.646C207.737 85.7815 207.824 85.8176 207.889 85.8819C207.953 85.9461 207.989 86.0333 207.989 86.1242C207.989 86.2151 207.953 86.3022 207.889 86.3665C207.824 86.4308 207.737 86.4668 207.646 86.4668Z" fill="#E6E6E6"/>
<path d="M207.646 100.517H116.576C116.485 100.517 116.398 100.481 116.334 100.416C116.269 100.352 116.233 100.265 116.233 100.174C116.233 100.083 116.269 99.9959 116.334 99.9317C116.398 99.8674 116.485 99.8313 116.576 99.8313H207.646C207.737 99.8313 207.824 99.8674 207.889 99.9317C207.953 99.9959 207.989 100.083 207.989 100.174C207.989 100.265 207.953 100.352 207.889 100.416C207.824 100.481 207.737 100.517 207.646 100.517Z" fill="#E6E6E6"/>
<path d="M197.024 99.8105V43.3509C197.024 43.2336 197.177 43.1384 197.367 43.1384C197.556 43.1384 197.709 43.2335 197.709 43.3509V99.8105C197.709 99.9278 197.556 100.023 197.367 100.023C197.177 100.023 197.024 99.9278 197.024 99.8105Z" fill="#E6E6E6"/>
<path d="M182.974 99.8105V43.3509C182.974 43.2336 183.128 43.1384 183.317 43.1384C183.506 43.1384 183.66 43.2335 183.66 43.3509V99.8105C183.66 99.9278 183.506 100.023 183.317 100.023C183.128 100.023 182.974 99.9278 182.974 99.8105Z" fill="#E6E6E6"/>
<path d="M168.924 99.8105V43.3509C168.924 43.2336 169.078 43.1384 169.267 43.1384C169.456 43.1384 169.61 43.2335 169.61 43.3509V99.8105C169.61 99.9278 169.456 100.023 169.267 100.023C169.078 100.023 168.924 99.9278 168.924 99.8105Z" fill="#E6E6E6"/>
<path d="M155.217 99.8105V43.3509C155.217 43.2336 155.371 43.1384 155.56 43.1384C155.749 43.1384 155.903 43.2335 155.903 43.3509V99.8105C155.903 99.9278 155.749 100.023 155.56 100.023C155.371 100.023 155.217 99.9278 155.217 99.8105Z" fill="#E6E6E6"/>
<path d="M140.825 114.149V43.4047C140.844 43.3286 140.888 43.2611 140.95 43.2129C141.013 43.1647 141.089 43.1385 141.167 43.1385C141.246 43.1385 141.322 43.1647 141.384 43.2129C141.446 43.2611 141.491 43.3286 141.51 43.4047V114.149C141.491 114.225 141.446 114.293 141.384 114.341C141.322 114.389 141.246 114.415 141.167 114.415C141.089 114.415 141.013 114.389 140.95 114.341C140.888 114.293 140.844 114.225 140.825 114.149Z" fill="#E6E6E6"/>
<path d="M126.432 114.149V43.4047C126.452 43.3286 126.496 43.2611 126.558 43.2129C126.62 43.1647 126.696 43.1385 126.775 43.1385C126.854 43.1385 126.93 43.1647 126.992 43.2129C127.054 43.2611 127.098 43.3286 127.118 43.4047V114.149C127.098 114.225 127.054 114.293 126.992 114.341C126.93 114.389 126.854 114.415 126.775 114.415C126.696 114.415 126.62 114.389 126.558 114.341C126.496 114.293 126.452 114.225 126.432 114.149Z" fill="#E6E6E6"/>
<path d="M116.576 114.567C116.485 114.567 116.398 114.531 116.333 114.467C116.269 114.403 116.233 114.316 116.233 114.225C116.232 114.134 116.268 114.047 116.332 113.982C116.397 113.918 116.484 113.881 116.574 113.881L151.446 113.73C151.536 113.732 151.623 113.768 151.687 113.832C151.751 113.895 151.788 113.981 151.79 114.071C151.791 114.116 151.782 114.161 151.765 114.203C151.748 114.244 151.723 114.282 151.691 114.314C151.659 114.346 151.622 114.371 151.58 114.389C151.539 114.406 151.494 114.415 151.449 114.415L116.578 114.567H116.576Z" fill="#E6E6E6"/>
<path d="M142.071 28.4644C141.98 28.4645 141.893 28.4284 141.829 28.3642C141.765 28.3 141.728 28.2128 141.728 28.122C141.728 28.0311 141.764 27.9439 141.829 27.8796C141.893 27.8153 141.98 27.7791 142.071 27.779L190.98 27.718H190.98C191.071 27.7179 191.158 27.7539 191.222 27.8181C191.287 27.8824 191.323 27.9695 191.323 28.0604C191.323 28.1513 191.287 28.2385 191.223 28.3028C191.159 28.3671 191.071 28.4032 190.981 28.4033L142.072 28.4644H142.071Z" fill="#E6E6E6"/>
<path d="M158.632 140.186C157.274 140.186 155.947 139.783 154.817 139.029C153.688 138.274 152.808 137.202 152.289 135.947C151.769 134.693 151.633 133.312 151.898 131.981C152.163 130.649 152.817 129.425 153.777 128.465C154.737 127.505 155.961 126.851 157.292 126.586C158.624 126.321 160.005 126.457 161.259 126.977C162.514 127.497 163.586 128.377 164.34 129.506C165.095 130.635 165.498 131.962 165.498 133.32C165.498 134.222 165.32 135.114 164.975 135.947C164.63 136.78 164.124 137.537 163.487 138.175C162.849 138.812 162.092 139.318 161.259 139.663C160.426 140.008 159.533 140.186 158.632 140.186Z" fill="#E6E6E6"/>
<path d="M161.341 132.643H159.309V130.611C159.309 130.431 159.238 130.259 159.111 130.132C158.984 130.005 158.812 129.934 158.632 129.934C158.452 129.934 158.28 130.005 158.153 130.132C158.026 130.259 157.955 130.431 157.955 130.611V132.643H155.923C155.743 132.643 155.571 132.714 155.444 132.841C155.317 132.968 155.246 133.14 155.246 133.32C155.246 133.5 155.317 133.672 155.444 133.799C155.571 133.926 155.743 133.997 155.923 133.997H157.955V136.029C157.954 136.118 157.972 136.206 158.006 136.289C158.04 136.371 158.09 136.446 158.152 136.509C158.215 136.572 158.29 136.622 158.372 136.656C158.455 136.69 158.543 136.708 158.632 136.708C158.721 136.708 158.809 136.69 158.891 136.656C158.974 136.622 159.048 136.572 159.111 136.509C159.174 136.446 159.224 136.371 159.258 136.289C159.292 136.206 159.309 136.118 159.309 136.029V133.997H161.341C161.521 133.997 161.693 133.926 161.82 133.799C161.947 133.672 162.018 133.5 162.018 133.32C162.018 133.14 161.947 132.968 161.82 132.841C161.693 132.714 161.521 132.643 161.341 132.643Z" fill="white"/>
<path d="M174.395 140.186C173.037 140.186 171.71 139.783 170.581 139.029C169.452 138.274 168.572 137.202 168.052 135.947C167.532 134.693 167.396 133.312 167.661 131.981C167.926 130.649 168.58 129.425 169.54 128.465C170.5 127.505 171.724 126.851 173.056 126.586C174.387 126.321 175.768 126.457 177.022 126.977C178.277 127.497 179.349 128.377 180.104 129.506C180.858 130.635 181.261 131.962 181.261 133.32C181.261 134.222 181.083 135.114 180.738 135.947C180.393 136.78 179.887 137.537 179.25 138.175C178.612 138.812 177.855 139.318 177.022 139.663C176.189 140.008 175.297 140.186 174.395 140.186Z" fill="#E6E6E6"/>
<path d="M177.87 136.242L176.082 134.148C176.5 133.555 176.682 132.828 176.591 132.108C176.5 131.388 176.143 130.728 175.59 130.258C175.038 129.789 174.329 129.543 173.604 129.569C172.879 129.596 172.19 129.892 171.673 130.401C171.156 130.91 170.847 131.594 170.809 132.318C170.771 133.043 171.005 133.756 171.466 134.316C171.927 134.877 172.581 135.244 173.299 135.347C174.017 135.45 174.748 135.28 175.347 134.871L177.088 136.909C177.177 137.012 177.303 137.076 177.438 137.086C177.574 137.096 177.708 137.053 177.811 136.964C177.915 136.876 177.979 136.751 177.99 136.615C178.001 136.48 177.958 136.345 177.87 136.242ZM171.825 132.463C171.825 132.091 171.935 131.726 172.143 131.416C172.35 131.106 172.644 130.865 172.988 130.722C173.333 130.579 173.712 130.542 174.077 130.615C174.443 130.688 174.779 130.867 175.042 131.131C175.306 131.394 175.485 131.73 175.558 132.096C175.631 132.461 175.594 132.84 175.451 133.185C175.308 133.529 175.067 133.823 174.757 134.03C174.447 134.238 174.082 134.348 173.71 134.348C173.21 134.347 172.731 134.149 172.378 133.795C172.024 133.442 171.825 132.963 171.825 132.463Z" fill="white"/>
<path d="M142.071 140.863C141.98 140.863 141.893 140.827 141.829 140.762C141.765 140.698 141.728 140.611 141.728 140.52C141.728 140.429 141.764 140.342 141.829 140.278C141.893 140.214 141.98 140.177 142.071 140.177L190.98 140.116H190.98C191.071 140.116 191.158 140.152 191.222 140.216C191.287 140.28 191.323 140.368 191.323 140.459C191.323 140.549 191.287 140.637 191.223 140.701C191.159 140.765 191.071 140.801 190.981 140.801L142.072 140.863H142.071Z" fill="#E6E6E6"/>
<path d="M79.4824 185.696L83.8539 185.696L85.9336 168.835L79.4817 168.836L79.4824 185.696Z" fill="#FFB6B6"/>
<path d="M78.369 184.269V189.933H92.4633V189.755C92.4631 188.3 91.885 186.905 90.8562 185.876C89.8274 184.847 88.432 184.269 86.9771 184.269L84.4001 182.315L84.2665 182.37L79.5992 184.269H78.369Z" fill="#2F2E41"/>
<path d="M39.9844 180.013L43.8967 181.963L53.2796 167.8L47.5051 164.923L39.9844 180.013Z" fill="#FFB6B6"/>
<path d="M37.097 183.309L49.7109 189.594L49.7897 189.436C50.1116 188.792 50.3032 188.09 50.3537 187.371C50.4042 186.652 50.3126 185.931 50.0841 185.248C49.8556 184.564 49.4947 183.933 49.022 183.389C48.5493 182.845 47.9741 182.4 47.3293 182.079L45.8935 179.183L45.7427 179.173L40.7259 178.786L40.6231 178.734L39.6225 178.237L37.097 183.309Z" fill="#2F2E41"/>
<path d="M82.4473 95.0698L58.343 95.9135L58.175 95.6694C58.175 95.6694 56.119 100.467 56.119 104.579C56.119 105.946 57.0699 114.888 56.5865 116.58C56.5264 116.791 56.94 117.306 56.8043 118.286C56.7163 118.922 56.2306 118.433 56.119 119.314C56.0389 119.947 56.8938 120.296 56.8043 121.028C56.7066 121.827 55.5307 124.416 55.4248 125.305C54.2978 134.772 52.7974 148.487 52.7974 148.487C52.7974 148.487 46.7708 164.628 45.496 164.89C43.3561 165.33 41.9114 169.221 43.0972 170.03C43.6619 170.416 50.9598 173.008 50.9598 173.008C51.3608 173.08 52.6153 172.451 51.8161 170.963C51.669 170.689 52.5464 171.386 52.6922 171.058C52.8473 170.71 52.5429 169.322 52.7205 168.935C54.3154 165.459 56.7641 160.642 59.0846 158.169C62.5134 154.515 64.6847 149.86 65.2819 144.885L70.6045 115.372L72.4287 123.648L73.9382 125.14L73.5241 128.618L73.5955 131.993L77.365 146.043C77.365 146.043 77.9303 172.281 77.0223 173.114C76.5305 173.566 74.4438 179.124 78.393 179.625L85.5681 179.072C85.5681 179.072 86.5348 177.035 86.0514 176.309C85.5681 175.584 85.5971 175.782 86.1868 174.596C86.7765 173.409 86.5348 171.399 86.5348 171.399C87.4747 161.949 87.8456 152.452 87.6453 142.959C87.2856 127.366 85.1059 109.453 85.1059 109.088C85.0877 108.715 85.1564 108.343 85.3067 108.001V107.016L84.3808 103.529L82.4473 95.0698Z" fill="#2F2E41"/>
<path d="M51.2407 103.837C51.0386 103.492 50.9146 103.106 50.8776 102.708C50.8406 102.309 50.8914 101.908 51.0264 101.531C51.1615 101.154 51.3775 100.812 51.6592 100.528C51.941 100.243 52.2816 100.024 52.6571 99.886L52.4839 82.5667L56.7558 85.2692L56.2648 101.684C56.4553 102.33 56.4022 103.024 56.1155 103.634C55.8287 104.243 55.3283 104.727 54.709 104.992C54.0898 105.258 53.3946 105.287 52.7554 105.074C52.1162 104.861 51.5772 104.421 51.2407 103.837Z" fill="#FFB8B8"/>
<path d="M52.2159 96.5768L52.5795 96.5593L52.6229 96.5604L53.9682 96.5556L56.1841 96.551L56.3446 96.5487L56.4169 96.5625L57.1733 96.694L57.2046 96.4911L58.6792 93.6745L59.8128 92.1151L59.4004 90.2777L58.5869 89.2645L59.9686 87.5902L60.1431 86.7634L61.2996 81.3249L65.1328 63.2868L65.1331 63.276L65.2137 62.8932L66.4603 57.0333L66.0762 55.5598L65.6483 53.942C65.3745 52.915 64.7399 52.0209 63.8608 51.4235C63.4792 51.1653 63.0593 50.9692 62.6164 50.8423C62.052 50.6751 61.4591 50.6264 60.8749 50.699L60.8684 50.701C60.5369 50.7422 60.2111 50.8209 59.8974 50.9357L59.7726 50.9844C59.5989 51.0548 59.4298 51.1362 59.2664 51.228C58.7601 51.5096 58.3148 51.8891 57.9565 52.3444C57.5982 52.7996 57.3341 53.3216 57.1794 53.88L53.1178 58.4043L52.4034 60.9644L52.1737 61.7865L51.4374 66.1694L51.4484 83.4173L51.3173 84.1987L51.1309 88.5287L51.8593 89.5213L51.0363 90.7246L51.0081 91.3852L51.0026 91.5552L52.1017 92.6713L52.1718 95.0786L52.2159 96.5768Z" fill="#3F3D56"/>
<path d="M56.1835 100.708C62.2698 101.761 66.351 101.36 68.8626 97.6241C72.1393 93.4517 78.0981 98.3783 83.1258 100.21L83.722 99.5659L84.7364 98.4727L83.8043 97.4173L84.7364 95.3818L83.9585 92.87L82.9647 92.6884L83.232 90.5261L83.6501 89.2616L82.4233 87.9149L81.3816 84.5532L82.132 77.518C83.159 67.8748 81.1691 58.1505 76.4367 49.6858L73.5891 47.1294L72.4068 46.0671L70.8202 43.1064L69.1446 43.3017L64.6075 43.826L64.4533 44.1961L63.3396 46.8827L59.2938 51.2286C58.7216 51.8433 58.2868 52.5728 58.0183 53.3685C57.7499 54.1642 57.6539 55.008 57.7368 55.8437L57.8533 57.0157L57.939 57.8586L58.3434 61.9159L59.9916 78.4912L60.115 79.3719L61.4412 88.9018C59.2857 90.9852 59.1545 90.5307 58.2396 94.1973C58.1368 94.6051 56.9443 95.5132 56.8689 95.9107C56.7627 96.4727 56.1835 100.708 56.1835 100.708Z" fill="#3F3D56"/>
<path d="M68.5409 41.3599C72.8931 41.3599 76.4212 37.8318 76.4212 33.4796C76.4212 29.1275 72.8931 25.5994 68.5409 25.5994C64.1887 25.5994 60.6606 29.1275 60.6606 33.4796C60.6606 37.8318 64.1887 41.3599 68.5409 41.3599Z" fill="#FFB6B6"/>
<path d="M60.2963 27.5475C61.354 26.4462 63.0438 25.903 64.4785 26.4256C64.7994 25.5075 65.3659 24.695 66.1166 24.0766C66.8672 23.4582 67.7731 23.0576 68.7357 22.9184C69.6982 22.7792 70.6805 22.9068 71.5755 23.2872C72.4706 23.6676 73.2441 24.2863 73.8119 25.0759C74.0716 24.9593 74.3569 24.9118 74.6403 24.9378C74.9237 24.9638 75.1956 25.0626 75.4296 25.2246C75.8943 25.555 76.2686 25.9967 76.5184 26.5092C77.1626 27.7332 77.4629 29.1089 77.3873 30.49C77.3117 31.8712 76.863 33.2059 76.089 34.3523C76.3973 33.7296 75.5303 34.802 74.6852 34.521C73.9593 34.3308 70.9775 32.4188 70.2333 32.5154C69.4892 32.6121 69.2478 32.0121 68.5199 31.8301C67.807 31.6021 65.987 34.5494 65.6222 36.4996C65.5531 36.8692 65.3852 37.3283 65.0093 37.3367C64.5464 37.3471 64.4078 36.6841 64.0173 36.4351C63.8333 36.3415 63.6201 36.323 63.4227 36.3835C63.2253 36.444 63.059 36.5788 62.959 36.7595C62.8678 36.9451 62.8222 37.1499 62.826 37.3568C62.8299 37.5636 62.8831 37.7665 62.9813 37.9487C63.1808 38.3107 63.4375 38.6381 63.7414 38.9183L63.5392 39.0294C63.34 39.172 63.0975 39.2409 62.8531 39.2244C62.6087 39.2078 62.3777 39.1067 62.1997 38.9384C61.4471 39.278 59.4 37.3631 59.6718 36.2045C59.1002 34.7844 58.7876 33.2734 58.7489 31.7431C58.7174 30.1995 59.27 28.7009 60.2963 27.5475Z" fill="#2F2E41"/>
<path d="M118.103 74.52C117.721 74.6403 117.318 74.6754 116.921 74.6229C116.524 74.5704 116.144 74.4316 115.807 74.2162C115.469 74.0008 115.183 73.7141 114.969 73.3762C114.755 73.0383 114.617 72.6576 114.565 72.2607L97.6409 68.5795L101.225 65.0153L117.121 69.143C117.793 69.1009 118.458 69.3069 118.988 69.722C119.519 70.1371 119.879 70.7324 120 71.3952C120.121 72.058 119.995 72.7421 119.645 73.3181C119.296 73.894 118.747 74.3216 118.103 74.52Z" fill="#FFB8B8"/>
<path d="M72.3651 50.0874C71.3841 50.1232 70.443 50.4849 69.6906 51.1153C69.2742 51.4604 68.927 51.8814 68.6673 52.3558C68.3815 52.8704 68.2033 53.4377 68.1433 54.0232L68.1435 54.0266C68.0558 54.889 68.2254 55.7581 68.6311 56.5242C69.0367 57.2903 69.6602 57.919 70.4228 58.3312L75.9981 61.3525L76.7042 61.7344C81.4546 66.5761 89.4648 69.1071 98.6796 70.7861L103.977 72.2353L105.758 71.5743L106.19 73.2676L107.963 73.3256L108.927 73.1252L110.945 72.334L111.33 71.559L111.33 71.5556L112.158 67.8821L112.164 67.8578L112.164 67.8543L112.357 67.0139L111.219 66.4874L110.229 65.1652L108.439 65.2011L106.807 65.3432L106.329 64.2246L85.6454 54.6536L81.3627 52.6699L81.3521 52.6636L81.1481 52.5678L75.5612 49.983L74.0401 50.0312L72.3651 50.0874Z" fill="#3F3D56"/>
<path d="M117.563 78.7842C119.426 78.7842 120.936 77.2741 120.936 75.4113C120.936 73.5484 119.426 72.0383 117.563 72.0383C115.7 72.0383 114.19 73.5484 114.19 75.4113C114.19 77.2741 115.7 78.7842 117.563 78.7842Z" fill="#14BA6D"/>
<path d="M20.8715 188.197C18.3969 188.415 15.9048 188.078 13.5772 187.21C11.2497 186.341 9.14546 184.964 7.41828 183.179C5.15985 180.798 3.61003 177.733 2.11121 174.769C1.67492 173.906 1.22392 173.014 0.765105 172.16C0.253574 171.228 0.0328053 170.164 0.131239 169.105C0.229673 168.047 0.642798 167.042 1.3174 166.22C1.96387 165.399 2.8415 164.79 3.83721 164.472C4.83292 164.154 5.90108 164.141 6.90406 164.435L7.12277 164.499L9.09117 172.179C9.38482 171.034 10.0151 168.452 10.4132 165.923L10.4466 165.712L10.6426 165.799C12.6979 166.708 14.6305 167.873 16.3949 169.265C19.5204 171.772 22.0624 174.93 23.8444 178.519C25.6263 182.107 26.6054 186.041 26.7136 190.046L26.7188 190.285L20.8715 188.197Z" fill="#F2F2F2"/>
<path d="M96.0027 190.456L0.481447 190.561C0.373234 190.561 0.269449 190.518 0.19293 190.441C0.116412 190.365 0.0734253 190.261 0.0734253 190.153C0.0734253 190.045 0.116412 189.941 0.19293 189.864C0.269449 189.788 0.373234 189.745 0.481447 189.745L96.0027 189.64C96.1107 189.64 96.2142 189.683 96.2905 189.76C96.3667 189.836 96.4096 189.94 96.4096 190.048C96.4096 190.156 96.3667 190.259 96.2905 190.336C96.2142 190.412 96.1107 190.455 96.0027 190.456Z" fill="#CACACA"/>
<path d="M175.607 23.887H157.445C157.036 23.887 156.644 23.7245 156.354 23.4353C156.065 23.1461 155.903 22.7539 155.903 22.3449C155.903 21.9359 156.065 21.5437 156.354 21.2545C156.644 20.9653 157.036 20.8029 157.445 20.8029H175.607C176.016 20.8029 176.408 20.9653 176.697 21.2545C176.986 21.5437 177.149 21.9359 177.149 22.3449C177.149 22.7539 176.986 23.1461 176.697 23.4353C176.408 23.7245 176.016 23.887 175.607 23.887Z" fill="#E6E6E6"/>
<path d="M232.811 10.7921C232.064 10.7921 231.334 10.5707 230.713 10.1558C230.093 9.74097 229.609 9.15131 229.323 8.46143C229.037 7.77154 228.962 7.01241 229.108 6.28004C229.254 5.54766 229.613 4.87493 230.141 4.34691C230.669 3.8189 231.342 3.45932 232.074 3.31364C232.807 3.16796 233.566 3.24272 234.256 3.52848C234.946 3.81424 235.535 4.29816 235.95 4.91904C236.365 5.53992 236.587 6.26988 236.587 7.01661C236.586 8.01794 236.189 8.97825 235.481 9.6863C234.773 10.3943 233.812 10.7921 232.811 10.7921Z" fill="#E6E6E6"/>
</g>
<defs>
<clipPath id="clip0_65_122">
<rect width="240.813" height="189.572" fill="white" transform="translate(0.0734253 0.989197)"/>
</clipPath>
</defs>
</svg>
