<svg width="274" height="216" viewBox="0 0 274 216" fill="none" xmlns="http://www.w3.org/2000/svg">
<g clip-path="url(#clip0_65_2)">
<path d="M65.5563 116.616C63.377 104.953 66.8081 91.6837 76.3444 84.6238C75.8039 97.5157 79.8409 110.183 87.7411 120.385C90.8021 124.309 94.6153 128.354 94.4968 133.329C94.4232 136.424 92.7491 139.308 90.543 141.48C88.3367 143.653 85.619 145.219 82.9338 146.761L82.5159 147.411C74.6445 138.533 67.7356 128.28 65.5563 116.616Z" fill="#F0F0F0"/>
<path d="M76.5181 84.8021C72.5116 93.7689 71.4323 103.77 73.4334 113.385C73.8275 115.463 74.5465 117.465 75.5642 119.319C76.6138 121.093 78.1192 122.553 79.9241 123.548C81.5883 124.509 83.4019 125.3 84.8034 126.65C85.5105 127.351 86.0614 128.194 86.4199 129.123C86.7784 130.052 86.9364 131.047 86.8836 132.042C86.8165 134.523 85.8617 136.833 84.8495 139.059C83.7257 141.53 82.5192 144.08 82.5921 146.858C82.6009 147.195 82.078 147.189 82.0692 146.853C81.9424 142.018 85.4376 138.136 86.2164 133.497C86.5798 131.332 86.2931 129.045 84.7713 127.367C83.4405 125.9 81.571 125.083 79.8775 124.123C78.1026 123.179 76.5861 121.813 75.4604 120.147C74.3517 118.351 73.5566 116.38 73.1094 114.317C72.0283 109.69 71.6816 104.921 72.0818 100.186C72.5087 94.7793 73.8573 89.4854 76.0693 84.5334C76.2064 84.227 76.6543 84.4977 76.5181 84.8021Z" fill="white"/>
<path d="M72.6068 110.327C70.948 110.444 69.3018 109.967 67.962 108.982C66.6222 107.997 65.6762 106.568 65.2929 104.95C65.2165 104.622 65.7221 104.488 65.7986 104.816C66.1528 106.324 67.0341 107.655 68.2836 108.569C69.533 109.484 71.0683 109.922 72.6123 109.804C72.9478 109.779 72.9404 110.302 72.6068 110.327Z" fill="white"/>
<path d="M79.016 123.171C81.2679 120.625 82.4772 117.323 82.4029 113.925C82.3952 113.588 82.9182 113.594 82.9258 113.93C82.9965 117.467 81.7311 120.9 79.3819 123.545C79.1579 123.797 78.7932 123.422 79.016 123.171Z" fill="white"/>
<path d="M73.1214 95.1041C73.7726 95.1927 74.4357 95.1181 75.051 94.8871C75.6662 94.6561 76.2145 94.2759 76.6466 93.7806C76.8673 93.526 77.2318 93.9013 77.0124 94.1542C76.5326 94.6992 75.9265 95.1184 75.2473 95.3751C74.5681 95.6318 73.8363 95.7183 73.1159 95.627C73.0473 95.6241 72.9823 95.5952 72.9343 95.5461C72.8862 95.497 72.8587 95.4315 72.8572 95.3628C72.8583 95.2936 72.8866 95.2276 72.9361 95.1791C72.9856 95.1307 73.0522 95.1037 73.1214 95.1041Z" fill="white"/>
<path d="M115.343 94.2713C115.209 94.4343 115.076 94.5972 114.944 94.7644C113.162 96.964 111.563 99.3048 110.161 101.764C110.049 101.952 109.939 102.144 109.833 102.336C106.518 108.295 104.339 114.819 103.405 121.574C103.036 124.262 102.872 126.975 102.914 129.688C102.973 133.436 103.335 137.494 102.187 140.94C102.071 141.301 101.933 141.655 101.773 141.998L83.3415 147.871C83.2929 147.863 83.2454 147.86 83.1966 147.852L82.4714 148.12C82.4595 147.981 82.45 147.835 82.4381 147.696C82.4308 147.614 82.4276 147.532 82.4203 147.451C82.4168 147.397 82.4134 147.342 82.4071 147.293C82.4058 147.275 82.4048 147.257 82.4049 147.243C82.3986 147.194 82.3979 147.148 82.3929 147.103C82.3381 146.291 82.2874 145.478 82.2453 144.663C82.244 144.658 82.244 144.658 82.2467 144.653C81.9304 138.44 82.1299 132.146 83.2784 126.083C83.313 125.9 83.346 125.714 83.3891 125.529C83.9219 122.798 84.677 120.116 85.6469 117.509C86.1825 116.083 86.79 114.685 87.467 113.32C89.223 109.798 91.5221 106.574 94.2801 103.766C99.7789 98.1693 107.006 94.3935 114.751 94.2746C114.949 94.2717 115.143 94.27 115.343 94.2713Z" fill="#F0F0F0"/>
<path d="M115.376 94.5184C106.778 99.2657 99.8948 106.601 95.7036 115.483C94.7674 117.379 94.1359 119.411 93.8324 121.504C93.6026 123.552 93.9255 125.624 94.7674 127.505C95.5173 129.275 96.4892 130.999 96.7957 132.92C96.9381 133.905 96.8704 134.91 96.5972 135.868C96.324 136.826 95.8514 137.715 95.2104 138.477C93.6628 140.418 91.51 141.687 89.3616 142.855C86.9762 144.152 84.478 145.461 82.8632 147.724C82.6675 147.998 82.2536 147.678 82.4489 147.405C85.2584 143.468 90.3868 142.472 93.8016 139.237C95.395 137.728 96.5432 135.729 96.3383 133.473C96.1591 131.5 95.1584 129.722 94.3837 127.937C93.5354 126.114 93.1465 124.111 93.2508 122.103C93.4468 120.001 93.9989 117.949 94.8836 116.032C96.8065 111.687 99.4007 107.671 102.571 104.131C106.167 100.071 110.431 96.6558 115.179 94.0337C115.473 93.8715 115.668 94.3573 115.376 94.5184Z" fill="white"/>
<path d="M96.8848 112.544C95.4901 111.638 94.4626 110.267 93.9859 108.674C93.5092 107.08 93.6144 105.37 94.2825 103.847C94.4188 103.539 94.9032 103.737 94.7668 104.045C94.142 105.462 94.0442 107.055 94.4912 108.538C94.9381 110.02 95.9003 111.294 97.204 112.13C97.4871 112.312 97.1663 112.725 96.8848 112.544Z" fill="white"/>
<path d="M94.2691 126.658C97.6002 125.981 100.554 124.073 102.54 121.314C102.737 121.041 103.151 121.36 102.955 121.634C100.882 124.5 97.8043 126.479 94.3363 127.177C94.0057 127.243 93.9403 126.724 94.2691 126.658Z" fill="white"/>
<path d="M106.461 100.699C106.928 101.162 107.502 101.501 108.132 101.687C108.763 101.873 109.429 101.9 110.072 101.765C110.402 101.694 110.467 102.213 110.14 102.283C109.428 102.429 108.692 102.399 107.995 102.195C107.298 101.991 106.662 101.62 106.142 101.113C106.089 101.069 106.054 101.007 106.045 100.939C106.037 100.871 106.054 100.802 106.094 100.746C106.137 100.692 106.199 100.656 106.268 100.647C106.337 100.638 106.406 100.657 106.461 100.699Z" fill="white"/>
<path d="M144.295 30.4908C144.357 30.7623 144.397 31.0382 144.415 31.316L166.026 43.7832L171.279 40.7592L176.879 48.0902L168.1 54.3472C167.391 54.8527 166.537 55.1145 165.666 55.0933C164.795 55.0721 163.955 54.769 163.271 54.2296L140.987 36.6492C139.981 37.0215 138.886 37.0787 137.847 36.8134C136.808 36.548 135.874 35.9726 135.17 35.1637C134.466 34.3548 134.025 33.3507 133.906 32.285C133.786 31.2193 133.994 30.1425 134.502 29.1977C135.009 28.253 135.792 27.4852 136.747 26.9964C137.701 26.5076 138.782 26.321 139.845 26.4613C140.908 26.6017 141.903 27.0625 142.698 27.7823C143.493 28.5021 144.05 29.4468 144.295 30.4908Z" fill="#FFB6B6"/>
<path d="M166.326 42.4066C166.395 42.0886 166.531 41.7891 166.726 41.5286C166.921 41.2681 167.17 41.0527 167.455 40.8971L177.433 35.4609C178.761 34.4581 180.433 34.0231 182.082 34.2514C183.731 34.4797 185.222 35.3525 186.229 36.6786C187.235 38.0046 187.674 39.6756 187.45 41.3251C187.226 42.9746 186.357 44.4679 185.034 45.4776L177.037 53.6012C176.809 53.8331 176.533 54.013 176.229 54.1287C175.925 54.2445 175.6 54.2933 175.275 54.272C174.951 54.2506 174.635 54.1595 174.348 54.005C174.062 53.8504 173.812 53.6359 173.617 53.3762L166.732 44.2478C166.536 43.9882 166.398 43.6892 166.328 43.3715C166.258 43.0537 166.257 42.7246 166.326 42.4066Z" fill="#3F3D56"/>
<path d="M184.151 10.8026C185.587 6.22758 188.851 2.03155 193.366 0.484948C197.881 -1.06165 204.492 1.29432 207.886 4.67706C214.095 10.8648 215.61 32.1218 211.344 38.8392C210.496 38.7943 207.568 38.7611 206.709 38.729L205.495 34.6802V38.6891C198.792 38.4819 191.814 38.6116 184.832 38.7457C184.206 33.9897 182.716 15.3776 184.151 10.8026Z" fill="#2F2E41"/>
<path d="M182.23 202.837H176.117L173.209 179.257L182.232 179.257L182.23 202.837Z" fill="#FFB6B6"/>
<path d="M235.747 199.036L229.831 200.578L221.069 178.493L229.8 176.218L235.747 199.036Z" fill="#FFB6B6"/>
<path d="M202.057 58.0093L203.442 61.6108L203.165 65.2123L176.055 74.6023L177.4 58.8404L180.448 55.2385L202.057 58.0093Z" fill="#FFB6B6"/>
<path d="M193.485 25.5987C198.833 25.5987 203.168 21.2636 203.168 15.916C203.168 10.5684 198.833 6.23328 193.485 6.23328C188.138 6.23328 183.803 10.5684 183.803 15.916C183.803 21.2636 188.138 25.5987 193.485 25.5987Z" fill="#FFB7B7"/>
<path d="M186.832 3.30738C188.693 2.17317 190.824 1.55963 193.003 1.5309C195.181 1.50218 197.328 2.05933 199.217 3.1441C201.107 4.22888 202.671 5.80143 203.745 7.69733C204.819 9.59323 205.364 11.7428 205.322 13.9214C200.044 15.2704 194.42 15.8347 188.459 14.2463L187.097 10.9117L186.294 14.2488C184.47 15.5315 182.71 15.5292 181.014 14.2418C180.942 12.0694 181.441 9.91618 182.462 7.99734C183.483 6.07851 184.99 4.4613 186.832 3.30738Z" fill="#2F2E41"/>
<path d="M184.965 214.445H180.627L179.853 210.35L177.87 214.445H166.364C165.813 214.445 165.276 214.269 164.831 213.942C164.387 213.616 164.059 213.155 163.895 212.629C163.731 212.102 163.739 211.537 163.919 211.016C164.099 210.494 164.441 210.044 164.895 209.731L174.083 203.385V199.245L183.747 199.822L184.965 214.445Z" fill="#2F2E41"/>
<path d="M241.857 209.439L237.66 210.533L235.877 206.765L234.991 211.229L223.858 214.131C223.324 214.27 222.76 214.235 222.248 214.031C221.736 213.826 221.302 213.464 221.01 212.996C220.719 212.528 220.584 211.979 220.627 211.429C220.669 210.879 220.887 210.357 221.247 209.939L228.537 201.482L227.493 197.475L236.99 195.595L241.857 209.439Z" fill="#2F2E41"/>
<path d="M234.997 184.207L217.077 147.376L211.452 102.549C215.33 95.3458 208.127 80.6889 208.127 80.6889V74.535L180.224 79.7991C174.517 95.365 171.75 111.855 172.062 128.432L173.187 188.02H172.834C172.249 188.02 171.687 188.252 171.273 188.666C170.86 189.08 170.627 189.641 170.627 190.226C170.627 190.812 170.86 191.373 171.273 191.787C171.687 192.201 172.249 192.433 172.834 192.433H183.868C184.453 192.433 185.015 192.201 185.428 191.787C185.842 191.373 186.075 190.812 186.075 190.226C186.075 189.641 185.842 189.08 185.428 188.666C185.015 188.252 184.453 188.02 183.868 188.02H183.583L191.505 112.213L200.715 149.622L222.973 184.065C222.405 184.109 221.876 184.372 221.498 184.798C221.12 185.223 220.921 185.779 220.944 186.348C220.967 186.917 221.209 187.455 221.621 187.849C222.032 188.243 222.58 188.462 223.149 188.461H234.183C234.696 188.461 235.194 188.283 235.589 187.956C235.985 187.629 236.254 187.175 236.351 186.671C236.447 186.167 236.365 185.645 236.117 185.195C235.87 184.745 235.474 184.396 234.997 184.207Z" fill="#2F2E41"/>
<path d="M210.65 84.4618C210.558 84.1017 210.355 83.7798 210.069 83.5424C209.783 83.3049 209.43 83.1641 209.059 83.14C208.691 78.935 206.261 51.9673 206.168 51.1761L206.165 51.1426L205.461 36.1109C205.436 35.565 205.21 35.0476 204.827 34.6576C204.444 34.2676 203.931 34.0323 203.386 33.9966L199.669 33.7537C199.618 33.752 199.57 33.7305 199.534 33.6939C199.499 33.6572 199.479 33.6082 199.479 33.5572C199.479 33.1467 199.398 32.7403 199.241 32.3611C199.084 31.9819 198.854 31.6374 198.564 31.3471C198.273 31.0569 197.929 30.8267 197.55 30.6696C197.17 30.5126 196.764 30.4317 196.354 30.4317H185.35C184.637 30.432 183.949 30.6924 183.415 31.164C182.88 31.6357 182.536 32.2861 182.448 32.9933C182.443 33.042 182.42 33.087 182.383 33.1194C182.346 33.1519 182.299 33.1692 182.25 33.1681L182.249 33.1681C180.998 33.1423 179.78 33.5656 178.815 34.3612C177.85 35.1568 177.203 36.2719 176.99 37.5042C175.485 46.2568 172.47 66.1219 173.961 77.1658C174.48 81.0104 174.244 86.7926 174.048 90.0093C174.028 90.3201 174.07 90.6318 174.172 90.9264C174.273 91.221 174.431 91.4927 174.637 91.726C174.199 91.8525 173.826 92.1445 173.598 92.5403C173.37 92.9362 173.305 93.405 173.416 93.8479C173.531 94.3019 173.821 94.6919 174.223 94.932C174.625 95.1721 175.106 95.2427 175.56 95.1283L209.37 86.6052C209.824 86.4908 210.214 86.2007 210.454 85.7987C210.694 85.3967 210.764 84.9158 210.65 84.4618Z" fill="#3F3D56"/>
<path d="M154.771 147.657C154.765 146.67 154.409 145.717 153.767 144.967C153.125 144.217 152.239 143.719 151.264 143.561L91.3212 133.717C90.7464 133.622 90.1581 133.648 89.594 133.794L75.5459 137.426L67.4856 139.513L52.6106 143.358C51.7126 143.591 50.9174 144.116 50.3497 144.85C49.782 145.584 49.4739 146.485 49.4737 147.413V210.225C49.4781 211.182 49.809 212.11 50.4117 212.854C51.0144 213.598 51.8528 214.114 52.7885 214.318L113.845 213.626C114.132 213.688 114.424 213.718 114.717 213.717C115.144 213.718 115.569 213.653 115.977 213.525L152.252 214.428C153.108 214.161 153.855 213.625 154.382 212.899C154.91 212.174 155.189 211.298 155.179 210.401L154.771 147.657Z" fill="white"/>
<path d="M154.771 147.657C154.765 146.67 154.409 145.717 153.767 144.967C153.125 144.217 152.239 143.719 151.264 143.561L91.3212 133.717C90.7464 133.622 90.1581 133.648 89.594 133.794L75.5459 137.426L67.4856 139.513L52.6106 143.358C51.7126 143.591 50.9174 144.116 50.3497 144.85C49.782 145.584 49.4739 146.485 49.4737 147.413V210.225C49.4781 211.182 49.809 212.11 50.4117 212.854C51.0144 213.598 51.8528 214.114 52.7885 214.318L113.845 213.626C114.132 213.688 114.424 213.718 114.717 213.717C115.144 213.718 115.569 213.653 115.977 213.525L152.252 214.428C153.108 214.161 153.855 213.625 154.382 212.899C154.91 212.174 155.189 211.298 155.179 210.401L154.771 147.657ZM151.938 213.43L115.663 214.293C115.145 214.454 114.595 214.48 114.065 214.369L53.0049 213.295C52.3033 213.142 51.6748 212.755 51.2232 212.197C50.7715 211.638 50.5236 210.943 50.5205 210.225V147.413C50.5209 146.77 50.7185 146.142 51.0866 145.615C51.4548 145.088 51.9757 144.686 52.5792 144.464C52.675 144.428 52.7729 144.398 52.8723 144.374L68.6092 140.305L77.9152 137.897L89.8557 134.809C90.1117 134.741 90.3757 134.707 90.6408 134.708C90.8114 134.708 90.9818 134.722 91.1502 134.75L151.093 144.593C151.576 144.673 152.033 144.863 152.429 145.149C152.825 145.436 153.149 145.811 153.375 146.244C153.602 146.683 153.721 147.17 153.724 147.664L154.133 210.408C154.14 211.081 153.931 211.738 153.535 212.282C153.14 212.827 152.58 213.229 151.938 213.43Z" fill="#CCCCCC"/>
<path d="M153.375 146.244C153.335 146.271 153.29 146.291 153.243 146.303L135.611 151.07L130.123 152.553L114.511 156.771C114.467 156.782 114.421 156.788 114.375 156.789C114.344 156.788 114.312 156.786 114.281 156.782L51.3335 145.305L51.1241 145.267C50.9878 145.241 50.8671 145.163 50.7885 145.048C50.7099 144.934 50.6797 144.793 50.7046 144.657C50.7295 144.52 50.8075 144.399 50.9214 144.32C51.0353 144.241 51.176 144.21 51.3126 144.234L52.5792 144.464L114.354 155.728L127.809 152.092L135.336 150.058L152.695 145.365L152.971 145.291C153.09 145.26 153.216 145.271 153.328 145.324C153.439 145.376 153.529 145.466 153.581 145.577C153.595 145.604 153.605 145.632 153.613 145.661C153.641 145.771 153.634 145.887 153.591 145.992C153.548 146.097 153.473 146.185 153.375 146.244Z" fill="#CCCCCC"/>
<path d="M114.899 213.839C114.612 213.839 114.378 213.608 114.375 215.086L113.852 158.036C113.849 155.981 114.081 155.745 114.37 155.742H114.375C114.662 155.742 114.896 155.973 114.899 158.026L115.422 215.077C115.425 213.6 115.192 213.837 114.903 213.839H114.899Z" fill="#CCCCCC"/>
<path d="M135.76 214.501L130.123 214.561L127.809 152.092L68.7802 140.347C68.7223 140.337 68.6652 140.323 68.6092 140.305C68.1558 140.176 67.7596 139.897 67.4856 139.513L75.546 137.426L77.9152 137.897L133.926 149.039C134.22 149.097 134.499 149.218 134.742 149.394C134.986 149.57 135.188 149.796 135.336 150.058C135.51 150.361 135.756 214.138 135.76 214.501Z" fill="#CCCCCC"/>
<path d="M180.912 33.318C180.907 32.5741 180.639 31.8559 180.155 31.2908C179.672 30.7256 179.003 30.3501 178.269 30.2307L133.093 22.8122C132.66 22.7405 132.216 22.7602 131.791 22.8701L121.204 25.6077L115.129 27.1802L103.918 30.0782C103.242 30.254 102.642 30.6493 102.214 31.2024C101.787 31.7554 101.554 32.4348 101.554 33.134V70.1607C101.558 70.8824 101.807 71.5814 102.261 72.1422C102.715 72.703 103.347 73.0922 104.052 73.2454L150.068 83.036C150.284 83.0824 150.504 83.1053 150.725 83.1044C151.047 83.105 151.367 83.0562 151.675 82.9597L179.013 74.3263C179.659 74.1249 180.222 73.721 180.619 73.1743C181.017 72.6276 181.227 71.9674 181.22 71.2916L180.912 33.318Z" fill="white"/>
<path d="M132.581 25.5313C132.548 25.5313 132.515 25.5355 132.484 25.5439L104.611 32.7521C104.526 32.774 104.451 32.8233 104.398 32.8923C104.344 32.9613 104.315 33.0462 104.315 33.1334V70.1597C104.316 70.2498 104.347 70.3372 104.404 70.4073C104.46 70.4774 104.539 70.526 104.627 70.5451L150.643 80.3356C150.709 80.3496 150.778 80.3462 150.843 80.3258L178.183 71.6926C178.263 71.6674 178.334 71.617 178.383 71.5487C178.433 71.4804 178.459 71.3979 178.458 71.3135L178.151 33.3402C178.151 33.2473 178.117 33.1576 178.057 33.087C177.996 33.0165 177.913 32.9696 177.821 32.9547L132.645 25.5364C132.624 25.5331 132.603 25.5314 132.581 25.5313Z" fill="#14BA6D"/>
<path d="M180.912 33.318C180.907 32.5741 180.639 31.8559 180.155 31.2908C179.672 30.7256 179.003 30.3501 178.269 30.2307L133.093 22.8122C132.66 22.7405 132.216 22.7602 131.791 22.8701L121.204 25.6077L115.129 27.1802L103.918 30.0782C103.242 30.254 102.642 30.6493 102.214 31.2024C101.787 31.7554 101.554 32.4348 101.554 33.134V70.1607C101.558 70.8824 101.807 71.5814 102.261 72.1422C102.715 72.703 103.347 73.0922 104.052 73.2454L150.068 83.036C150.284 83.0824 150.504 83.1053 150.725 83.1044C151.047 83.105 151.367 83.0562 151.675 82.9597L179.013 74.3263C179.659 74.1249 180.222 73.721 180.619 73.1743C181.017 72.6276 181.227 71.9674 181.22 71.2916L180.912 33.318ZM178.777 73.5742L151.438 82.2076C151.048 82.3291 150.633 82.349 150.233 82.2655L104.216 72.4749C103.687 72.3597 103.213 72.0676 102.873 71.6468C102.532 71.2261 102.346 70.7019 102.343 70.1608V33.134C102.343 32.6494 102.492 32.1765 102.77 31.7792C103.047 31.3818 103.44 31.0791 103.895 30.9118C103.967 30.8847 104.041 30.8619 104.116 30.8435L115.976 27.7772L122.989 25.9627L131.988 23.6353C132.181 23.5838 132.38 23.5582 132.58 23.5591C132.709 23.559 132.837 23.5696 132.964 23.5906L178.14 31.0092C178.504 31.0688 178.848 31.2123 179.147 31.4281C179.445 31.644 179.69 31.9265 179.86 32.253C180.031 32.5841 180.121 32.9508 180.123 33.3233L180.431 71.2968C180.436 71.8038 180.279 72.2991 179.981 72.7093C179.683 73.1195 179.261 73.4228 178.777 73.5742Z" fill="#3F3D56"/>
<path d="M179.86 32.253C179.829 32.2732 179.796 32.2883 179.76 32.2977L166.472 35.89L162.336 37.0076L150.57 40.187C150.536 40.1952 150.502 40.1996 150.468 40.2001C150.444 40.1997 150.42 40.1979 150.396 40.1948L102.956 31.5456L102.798 31.5167C102.695 31.4975 102.604 31.4383 102.545 31.3521C102.486 31.2659 102.463 31.1597 102.482 31.0568C102.5 30.9539 102.559 30.8626 102.645 30.8029C102.731 30.7432 102.837 30.72 102.94 30.7383L103.895 30.9118L150.452 39.4007L160.592 36.6605L166.264 35.1273L179.347 31.5903L179.555 31.5351C179.645 31.5114 179.74 31.52 179.824 31.5594C179.908 31.5989 179.976 31.6666 180.015 31.7507C180.025 31.7708 180.033 31.792 180.039 31.8138C180.061 31.8965 180.055 31.984 180.023 32.0632C179.99 32.1424 179.933 32.209 179.86 32.253Z" fill="#3F3D56"/>
<path d="M150.862 83.1964C150.758 83.1964 150.658 83.1554 150.584 83.0822C150.51 83.009 150.468 82.9096 150.467 82.8056L150.073 39.8093C150.072 39.7046 150.113 39.604 150.186 39.5293C150.259 39.4547 150.359 39.4122 150.464 39.4112H150.467C150.571 39.4112 150.671 39.4523 150.745 39.5255C150.819 39.5987 150.861 39.6981 150.862 39.8021L151.256 82.7984C151.257 82.903 151.217 83.0037 151.143 83.0783C151.07 83.153 150.97 83.1955 150.866 83.1964H150.862Z" fill="#3F3D56"/>
<path d="M166.472 77.9659L162.336 79.0835L160.592 36.6605L116.105 27.8087C116.061 27.801 116.018 27.7905 115.976 27.7772C115.634 27.6799 115.335 27.4694 115.129 27.1802L121.204 25.6077L122.989 25.9627L165.202 34.3595C165.424 34.4033 165.634 34.4946 165.817 34.6272C166.001 34.7597 166.153 34.9303 166.264 35.1273C166.396 35.3561 166.469 77.6924 166.472 77.9659Z" fill="#3F3D56"/>
<path d="M164.619 53.778C164.83 53.9589 165.027 54.1563 165.208 54.3682L189.989 51.4741L192.399 45.9128L201.267 48.453L197.957 58.7128C197.69 59.5417 197.161 60.2614 196.45 60.764C195.738 61.2666 194.883 61.525 194.013 61.5002L165.64 60.6936C165.055 61.5925 164.211 62.2921 163.218 62.6993C162.226 63.1065 161.134 63.202 160.086 62.9731C159.039 62.7443 158.085 62.2018 157.353 61.418C156.622 60.6342 156.146 59.6461 155.989 58.5853C155.832 57.5244 156.003 56.4409 156.477 55.4791C156.951 54.5172 157.707 53.7225 158.643 53.2006C159.58 52.6788 160.654 52.4545 161.721 52.5576C162.789 52.6608 163.799 53.0864 164.619 53.778Z" fill="#FFB6B6"/>
<path d="M189.408 50.1906C189.273 49.8945 189.204 49.5728 189.205 49.2475C189.206 48.9222 189.277 48.6009 189.413 48.3055L194.174 37.989C194.642 36.3916 195.724 35.0448 197.183 34.2439C198.642 33.4431 200.36 33.2537 201.958 33.7171C203.557 34.1805 204.907 35.259 205.712 36.7161C206.516 38.1732 206.71 39.8899 206.251 41.4899L204.683 52.7806C204.638 53.1028 204.525 53.4116 204.35 53.6859C204.175 53.9602 203.943 54.1936 203.67 54.3702C203.397 54.5468 203.089 54.6625 202.767 54.7093C202.445 54.7561 202.116 54.733 201.804 54.6415L190.832 51.426C190.52 51.3347 190.231 51.177 189.985 50.9638C189.739 50.7506 189.542 50.4868 189.408 50.1906Z" fill="#3F3D56"/>
<path d="M272.533 214.961H0.52552C0.386407 214.96 0.253126 214.905 0.1549 214.806C0.0566747 214.708 0.00152588 214.574 0.00152588 214.435C0.00152588 214.296 0.0566747 214.163 0.1549 214.064C0.253126 213.966 0.386407 213.91 0.52552 213.91H272.533C272.673 213.91 272.806 213.965 272.905 214.064C273.004 214.162 273.059 214.296 273.059 214.435C273.059 214.575 273.004 214.708 272.905 214.807C272.806 214.905 272.673 214.961 272.533 214.961Z" fill="#CACACA"/>
<path d="M53.013 159.121C61.7422 159.121 68.8186 152.045 68.8186 143.315C68.8186 134.586 61.7422 127.51 53.013 127.51C44.2838 127.51 37.2074 134.586 37.2074 143.315C37.2074 152.045 44.2838 159.121 53.013 159.121Z" fill="#14BA6D"/>
<path d="M50.8568 151.541C50.5838 151.541 50.3146 151.478 50.0705 151.356C49.8264 151.234 49.6141 151.056 49.4504 150.838L45.1384 145.089C44.8586 144.716 44.7385 144.247 44.8045 143.785C44.8704 143.324 45.1171 142.907 45.4901 142.627C45.8631 142.348 46.332 142.227 46.7936 142.293C47.2552 142.359 47.6717 142.606 47.9514 142.979L50.7725 146.74L58.018 135.872C58.1457 135.679 58.3103 135.513 58.5022 135.384C58.6941 135.255 58.9097 135.165 59.1365 135.119C59.3632 135.073 59.5968 135.073 59.8238 135.118C60.0508 135.162 60.2667 135.251 60.4592 135.38C60.6517 135.508 60.817 135.673 60.9456 135.865C61.0742 136.058 61.1635 136.274 61.2085 136.501C61.2535 136.727 61.2533 136.961 61.2079 137.188C61.1625 137.415 61.0727 137.63 60.9438 137.822L52.3198 150.758C52.1638 150.992 51.954 151.186 51.7079 151.322C51.4619 151.458 51.1868 151.533 50.9057 151.541C50.8894 151.541 50.8731 151.541 50.8568 151.541Z" fill="white"/>
<path d="M120.313 59.3632C120.263 59.3632 120.214 59.3577 120.166 59.3468L106.484 56.2573C106.313 56.2185 106.164 56.1133 106.071 55.9649C105.977 55.8166 105.946 55.6371 105.985 55.4659C106.023 55.2948 106.128 55.146 106.277 55.0522C106.425 54.9583 106.604 54.9272 106.776 54.9656L120.458 58.0551C120.617 58.091 120.757 58.1841 120.851 58.3168C120.946 58.4494 120.988 58.6122 120.97 58.7741C120.952 58.9359 120.875 59.0855 120.754 59.1942C120.632 59.3029 120.475 59.363 120.313 59.3632Z" fill="white"/>
<path d="M67.6554 183.71C67.6073 183.72 67.5582 183.725 67.5091 183.724L53.4844 183.488C53.309 183.485 53.1422 183.412 53.0204 183.286C52.8986 183.16 52.8318 182.99 52.8347 182.815C52.8376 182.64 52.91 182.472 53.0359 182.35C53.1618 182.228 53.331 182.161 53.5064 182.164L67.531 182.4C67.6939 182.403 67.85 182.465 67.9695 182.576C68.089 182.687 68.1636 182.837 68.179 183C68.1944 183.162 68.1495 183.324 68.0529 183.455C67.9563 183.586 67.8148 183.677 67.6554 183.71Z" fill="#E6E6E6"/>
<path d="M72.5104 191.213C72.4623 191.223 72.4132 191.228 72.364 191.227L58.3394 190.991C58.164 190.988 57.9971 190.915 57.8753 190.789C57.7535 190.663 57.6868 190.493 57.6897 190.318C57.6926 190.143 57.765 189.976 57.8909 189.854C58.0168 189.731 58.186 189.664 58.3613 189.667L72.386 189.903C72.5488 189.906 72.7049 189.969 72.8245 190.079C72.944 190.19 73.0186 190.341 73.034 190.503C73.0494 190.665 73.0045 190.827 72.9079 190.958C72.8113 191.089 72.6698 191.18 72.5104 191.213Z" fill="#E6E6E6"/>
</g>
<defs>
<clipPath id="clip0_65_2">
<rect width="273.059" height="215.086" fill="white"/>
</clipPath>
</defs>
</svg>
