<svg xmlns="http://www.w3.org/2000/svg" xmlns:xlink="http://www.w3.org/1999/xlink" width="554" zoomAndPan="magnify" viewBox="0 0 415.5 233.999995" height="312" preserveAspectRatio="xMidYMid meet" version="1.0"><defs><g/><clipPath id="9755da0183"><path d="M 0 0.140625 L 415 0.140625 L 415 233.859375 L 0 233.859375 Z M 0 0.140625 " clip-rule="nonzero"/></clipPath><clipPath id="2fce50346a"><path d="M 87 75.519531 L 141 75.519531 L 141 107 L 87 107 Z M 87 75.519531 " clip-rule="nonzero"/></clipPath><clipPath id="065d891250"><path d="M 75.550781 93 L 152.4375 93 L 152.4375 158.769531 L 75.550781 158.769531 Z M 75.550781 93 " clip-rule="nonzero"/></clipPath></defs><g clip-path="url(#9755da0183)"><path fill="#ffffff" d="M 0 0.140625 L 415.5 0.140625 L 415.5 241.640625 L 0 241.640625 Z M 0 0.140625 " fill-opacity="1" fill-rule="nonzero"/><path fill="#ffffff" d="M 0 0.140625 L 415.5 0.140625 L 415.5 234.140625 L 0 234.140625 Z M 0 0.140625 " fill-opacity="1" fill-rule="nonzero"/></g><g clip-path="url(#2fce50346a)"><path fill="#14ba6d" d="M 87.441406 91.0625 L 114.257812 75.519531 L 140.59375 91.414062 L 114.273438 106.59375 Z M 87.441406 91.0625 " fill-opacity="1" fill-rule="nonzero"/></g><g clip-path="url(#065d891250)"><path fill="#14ba6d" d="M 114.257812 115.863281 L 114.472656 138.628906 L 114.492188 139.613281 L 116.296875 114.628906 L 152.683594 93.492188 L 152.785156 93.445312 L 152.785156 135.902344 C 149.371094 137.78125 146.011719 139.761719 142.664062 141.742188 C 145.28125 147.269531 148.511719 152.476562 150.996094 158.070312 C 144.054688 155.605469 137.28125 152.644531 130.390625 150.046875 C 129.082031 149.347656 127.875 150.3125 126.746094 150.929688 C 125.585938 151.628906 124.410156 152.3125 123.253906 152.992188 L 114.257812 158.769531 L 75.632812 135.984375 L 75.617188 135.984375 L 75.566406 93.476562 C 88.503906 100.851562 101.390625 108.355469 114.257812 115.863281 Z M 92.03125 128.878906 C 93.140625 128.878906 94.101562 128.195312 94.53125 127.230469 C 94.679688 126.898438 94.746094 126.53125 94.746094 126.132812 C 94.746094 124.617188 93.523438 123.386719 92.015625 123.386719 C 91.699219 123.386719 91.386719 123.433594 91.101562 123.550781 C 90.042969 123.917969 89.296875 124.933594 89.296875 126.132812 C 89.316406 127.644531 90.523438 128.878906 92.03125 128.878906 Z M 92.03125 128.878906 " fill-opacity="1" fill-rule="nonzero"/></g><g fill="#24265d" fill-opacity="1"><g transform="translate(164.139167, 132.963182)"><g><path d="M 9.339844 0 L 15.828125 0 L 21.347656 -14.722656 L 26.820312 0 L 33.308594 0 L 42.234375 -24.152344 L 34.875 -24.152344 L 32.019531 -16.148438 L 29.628906 -9.339844 L 27.144531 -16.148438 L 24.152344 -24.152344 L 18.496094 -24.152344 L 15.503906 -16.148438 L 13.019531 -9.386719 L 10.628906 -16.148438 L 7.820312 -24.152344 L 0.414062 -24.152344 Z M 9.339844 0 "/></g></g></g><g fill="#24265d" fill-opacity="1"><g transform="translate(206.318384, 132.963182)"><g><path d="M 11.546875 0.460938 C 15.136719 0.460938 18.082031 -0.691406 20.152344 -2.804688 L 20.933594 0 L 26.132812 0 L 26.132812 -14.539062 C 26.132812 -20.933594 21.808594 -24.796875 14.585938 -24.796875 C 8.417969 -24.796875 4.371094 -21.851562 3.496094 -16.609375 L 10.214844 -16.609375 C 10.628906 -18.3125 12.375 -19.460938 14.628906 -19.460938 C 17.390625 -19.460938 19.277344 -17.898438 19.277344 -15.503906 L 19.277344 -14.398438 L 10.535156 -14.398438 C 5.519531 -14.398438 2.300781 -11.5 2.300781 -7.039062 C 2.300781 -2.390625 5.84375 0.460938 11.546875 0.460938 Z M 9.203125 -7.316406 C 9.203125 -8.972656 10.582031 -10.03125 12.699219 -10.03125 L 19.324219 -10.03125 C 19.183594 -6.761719 16.65625 -4.554688 13.15625 -4.554688 C 10.765625 -4.554688 9.203125 -5.660156 9.203125 -7.316406 Z M 9.203125 -7.316406 "/></g></g></g><g fill="#24265d" fill-opacity="1"><g transform="translate(238.808192, 132.963182)"><g><path d="M 2.207031 0 L 22.082031 0 L 22.082031 -3.542969 L 7.546875 -3.542969 L 21.808594 -20.980469 L 21.808594 -23.878906 L 2.667969 -23.878906 L 2.667969 -20.335938 L 16.5625 -20.335938 L 2.207031 -2.898438 Z M 2.207031 0 "/></g></g></g><g fill="#24265d" fill-opacity="1"><g transform="translate(262.588567, 132.963182)"><g><path d="M 15.042969 0.597656 C 22.453125 0.597656 27.695312 -4.648438 27.695312 -11.960938 C 27.695312 -19.277344 22.453125 -24.476562 15.042969 -24.476562 C 7.636719 -24.476562 2.390625 -19.277344 2.390625 -11.960938 C 2.390625 -4.648438 7.636719 0.597656 15.042969 0.597656 Z M 6.257812 -11.960938 C 6.257812 -17.160156 9.890625 -20.796875 15.042969 -20.796875 C 20.195312 -20.796875 23.832031 -17.160156 23.832031 -11.960938 C 23.832031 -6.71875 20.195312 -3.128906 15.042969 -3.128906 C 9.890625 -3.128906 6.257812 -6.71875 6.257812 -11.960938 Z M 6.257812 -11.960938 "/></g></g></g><g fill="#24265d" fill-opacity="1"><g transform="translate(292.21058, 132.963182)"><g><path d="M 4.277344 0 L 8.144531 0 L 8.144531 -23.878906 L 4.277344 -23.878906 Z M 3.082031 -30.824219 C 3.082031 -29.121094 4.324219 -27.835938 6.210938 -27.835938 C 8.097656 -27.835938 9.292969 -29.121094 9.292969 -30.824219 C 9.292969 -32.574219 8.097656 -33.859375 6.210938 -33.859375 C 4.324219 -33.859375 3.082031 -32.574219 3.082031 -30.824219 Z M 3.082031 -30.824219 "/></g></g></g><g fill="#24265d" fill-opacity="1"><g transform="translate(304.169695, 132.963182)"><g><path d="M 14.585938 0.597656 C 18.449219 0.597656 21.761719 -1.011719 23.921875 -3.679688 L 24.382812 0 L 27.558594 0 L 27.558594 -34.046875 L 23.695312 -34.046875 L 23.695312 -20.519531 C 21.53125 -23.003906 18.3125 -24.476562 14.585938 -24.476562 C 7.5 -24.476562 2.390625 -19.183594 2.390625 -11.960938 C 2.390625 -4.691406 7.5 0.597656 14.585938 0.597656 Z M 6.257812 -11.960938 C 6.257812 -17.113281 9.890625 -20.796875 15.042969 -20.796875 C 20.242188 -20.796875 23.832031 -17.113281 23.832031 -11.960938 C 23.832031 -6.761719 20.242188 -3.128906 15.042969 -3.128906 C 9.890625 -3.128906 6.257812 -6.761719 6.257812 -11.960938 Z M 6.257812 -11.960938 "/></g></g></g></svg>