<svg width="141" height="150" viewBox="0 0 141 150" fill="none" xmlns="http://www.w3.org/2000/svg">
<path d="M140.578 139.585C139.549 143.154 136.545 145.653 133.411 147.775C132.973 148.072 132.536 148.362 132.098 148.644C132.095 148.646 132.092 148.648 132.089 148.65C132.068 148.663 132.046 148.677 132.027 148.69C131.937 148.749 131.846 148.807 131.756 148.865L131.806 148.887C131.806 148.887 131.854 148.912 131.801 148.891C131.785 148.884 131.769 148.878 131.753 148.872C129.933 148.137 128.08 147.349 126.685 145.974C125.237 144.545 124.392 142.305 125.175 140.428C125.278 140.183 125.408 139.949 125.563 139.732C125.627 139.641 125.695 139.554 125.767 139.469C126.199 138.941 126.764 138.538 127.404 138.301C128.043 138.065 128.734 138.002 129.406 138.121C130.078 138.24 130.705 138.536 131.225 138.977C131.745 139.419 132.137 139.992 132.362 140.636C132.592 138.492 130.825 136.696 129.124 135.372C127.422 134.047 125.488 132.605 125.159 130.474C124.975 129.288 125.388 128.138 126.139 127.215C126.162 127.187 126.186 127.159 126.21 127.132C127.124 126.057 128.411 125.367 129.812 125.2C132.421 124.928 134.956 126.31 136.852 128.124C139.903 131.043 141.747 135.527 140.578 139.585Z" fill="#F2F2F2"/>
<path d="M135.673 134.917C136.174 135.696 136.558 136.544 136.814 137.434C137.031 138.229 137.127 139.053 137.1 139.877C137.03 141.573 136.554 143.227 135.712 144.7C135.078 145.818 134.305 146.852 133.411 147.775C132.973 148.072 132.536 148.362 132.098 148.644C132.095 148.646 132.092 148.648 132.089 148.65C132.068 148.663 132.047 148.677 132.027 148.69C131.937 148.749 131.846 148.807 131.757 148.865C131.757 148.865 131.854 148.912 131.801 148.891C131.786 148.884 131.769 148.878 131.753 148.872C131.917 147.534 131.757 146.177 131.287 144.913C130.818 143.65 130.052 142.518 129.055 141.611C128.056 140.719 126.859 140.075 125.563 139.732C125.627 139.641 125.696 139.554 125.767 139.469C126.267 139.609 126.754 139.793 127.222 140.02C128.895 140.823 130.265 142.143 131.129 143.786C131.904 145.277 132.238 146.959 132.09 148.633C132.165 148.565 132.24 148.496 132.313 148.427C133.696 147.138 134.925 145.657 135.756 143.949C136.478 142.502 136.832 140.9 136.789 139.283C136.721 137.521 136.019 135.889 135.002 134.468C133.888 132.952 132.572 131.595 131.09 130.436C129.597 129.24 127.963 128.231 126.224 127.432C126.185 127.414 126.154 127.381 126.139 127.341C126.123 127.3 126.123 127.255 126.139 127.215C126.151 127.179 126.176 127.15 126.21 127.132C126.227 127.125 126.246 127.121 126.265 127.122C126.283 127.123 126.302 127.128 126.318 127.137C126.533 127.236 126.746 127.336 126.957 127.44C128.719 128.311 130.365 129.396 131.858 130.673C133.3 131.902 134.658 133.307 135.673 134.917Z" fill="white"/>
<path d="M0.709205 132.786C2.37448 138.564 7.2369 142.608 12.309 146.043C13.0172 146.523 13.7256 146.991 14.4343 147.449C14.4391 147.451 14.444 147.456 14.4489 147.458C14.483 147.48 14.5172 147.502 14.5489 147.524C14.6952 147.618 14.8415 147.712 14.9865 147.806L14.9069 147.841C14.9069 147.841 14.8286 147.883 14.9142 147.848C14.9397 147.837 14.9664 147.828 14.9918 147.817C17.9384 146.629 20.9373 145.353 23.1954 143.126C25.5379 140.815 26.9068 137.189 25.6384 134.151C25.4716 133.754 25.261 133.376 25.0105 133.025C24.9076 132.877 24.7968 132.736 24.6814 132.598C23.9818 131.744 23.0673 131.092 22.032 130.709C20.9967 130.325 19.878 130.225 18.791 130.417C17.7039 130.609 16.6877 131.088 15.8468 131.803C15.0059 132.518 14.3707 133.445 14.0065 134.487C13.6338 131.017 16.4947 128.111 19.2479 125.967C22.0023 123.823 25.132 121.489 25.6645 118.039C25.9619 116.119 25.2943 114.259 24.0783 112.766C24.0407 112.72 24.0031 112.675 23.9643 112.631C22.484 110.891 20.4021 109.774 18.1342 109.503C13.9107 109.064 9.80825 111.3 6.73997 114.236C1.80157 118.961 -1.18389 126.218 0.709205 132.786Z" fill="#F2F2F2"/>
<path d="M8.64787 125.23C7.8373 126.491 7.21497 127.864 6.80053 129.305C6.45005 130.592 6.29407 131.925 6.33774 133.259C6.41364 136.001 7.25723 138.68 8.58451 141.066C9.61137 142.875 10.8628 144.547 12.309 146.043C13.0172 146.523 13.7256 146.991 14.4343 147.449C14.4391 147.451 14.4441 147.456 14.4489 147.458C14.483 147.48 14.5172 147.502 14.5489 147.524C14.6952 147.618 14.8415 147.712 14.9865 147.806C14.9865 147.806 14.8286 147.883 14.9142 147.848C14.9397 147.837 14.9664 147.828 14.9918 147.817C14.7277 145.652 14.9864 143.455 15.7463 141.41C16.5061 139.366 17.745 137.533 19.359 136.066C20.9769 134.621 22.9133 133.579 25.0105 133.025C24.9076 132.877 24.7968 132.736 24.6814 132.598C23.8715 132.825 23.0832 133.124 22.3258 133.49C19.6182 134.79 17.4013 136.927 16.003 139.585C14.7483 141.999 14.2083 144.721 14.4464 147.431C14.3253 147.321 14.2041 147.209 14.0866 147.098C11.8475 145.01 9.85872 142.614 8.5128 139.849C7.34513 137.507 6.77124 134.914 6.84167 132.298C6.95152 129.446 8.08798 126.804 9.73342 124.504C11.496 122.042 13.7058 119.865 16.0656 117.978C18.4826 116.042 21.1273 114.409 23.941 113.116C24.0044 113.086 24.0541 113.033 24.0796 112.968C24.1052 112.903 24.1047 112.83 24.0783 112.766C24.0595 112.707 24.0186 112.659 23.9643 112.631C23.9364 112.619 23.9061 112.613 23.8757 112.614C23.8453 112.616 23.8156 112.624 23.7888 112.638C23.4414 112.798 23.0964 112.96 22.7542 113.129C19.9039 114.538 17.2397 116.296 14.8227 118.361C12.4881 120.352 10.2902 122.626 8.64787 125.23Z" fill="white"/>
<path d="M113.42 36.0694H112.606V13.7601C112.606 12.0645 112.272 10.3855 111.623 8.81892C110.974 7.25236 110.023 5.82895 108.824 4.62996C107.625 3.43097 106.202 2.47988 104.635 1.83099C103.068 1.1821 101.389 0.848116 99.6938 0.848114H52.4286C49.0042 0.848106 45.7199 2.20847 43.2985 4.62993C40.877 7.05139 39.5166 10.3356 39.5166 13.7601V136.15C39.5166 139.575 40.877 142.859 43.2984 145.281C45.7199 147.702 49.0041 149.062 52.4286 149.062H99.6938C103.118 149.062 106.402 147.702 108.824 145.281C111.245 142.859 112.606 139.575 112.606 136.151V51.9495H113.42L113.42 36.0694Z" fill="#CCCCCC"/>
<path d="M109.857 13.8502V136.06C109.857 138.618 108.841 141.071 107.033 142.879C105.225 144.687 102.772 145.703 100.215 145.703H52.7226C50.1651 145.703 47.7124 144.687 45.904 142.879C44.0956 141.071 43.0796 138.618 43.0796 136.06V13.8502C43.0796 11.2927 44.0956 8.84003 45.904 7.03163C47.7124 5.22323 50.1651 4.20726 52.7226 4.20721H58.4839C58.2008 4.90289 58.093 5.65747 58.17 6.40459C58.2469 7.15171 58.5063 7.86846 58.9253 8.49181C59.3443 9.11516 59.91 9.62599 60.5728 9.97938C61.2355 10.3328 61.9749 10.5179 62.726 10.5184H89.8038C90.5548 10.5179 91.2943 10.3328 91.957 9.97936C92.6197 9.62597 93.1855 9.11514 93.6044 8.4918C94.0234 7.86845 94.2828 7.1517 94.3598 6.40458C94.4368 5.65747 94.3289 4.90289 94.0459 4.20721H100.215C102.772 4.20726 105.225 5.22323 107.033 7.03163C108.841 8.84003 109.857 11.2927 109.857 13.8502Z" fill="white"/>
<path d="M75.3859 85.4024C76.2449 85.4024 76.9413 84.706 76.9413 83.847C76.9413 82.988 76.2449 82.2917 75.3859 82.2917C74.5269 82.2917 73.8306 82.988 73.8306 83.847C73.8306 84.706 74.5269 85.4024 75.3859 85.4024Z" fill="white"/>
<path d="M69.4257 115.146H54.7627C53.7635 115.146 52.8052 114.749 52.0986 114.042C51.3921 113.335 50.9951 112.377 50.9951 111.378C50.9951 110.379 51.3921 109.42 52.0986 108.714C52.8052 108.007 53.7635 107.61 54.7627 107.61H69.4257C70.425 107.61 71.3833 108.007 72.0898 108.714C72.7964 109.42 73.1933 110.379 73.1933 111.378C73.1933 112.377 72.7964 113.335 72.0898 114.042C71.3833 114.749 70.425 115.146 69.4257 115.146Z" fill="#14BA6D"/>
<path d="M98.5639 115.146H83.9009C82.9017 115.146 81.9434 114.749 81.2368 114.042C80.5302 113.335 80.1333 112.377 80.1333 111.378C80.1333 110.379 80.5302 109.42 81.2368 108.714C81.9434 108.007 82.9017 107.61 83.9009 107.61H98.5639C99.5631 107.61 100.521 108.007 101.228 108.714C101.935 109.42 102.332 110.379 102.332 111.378C102.332 112.377 101.935 113.335 101.228 114.042C100.521 114.749 99.5631 115.146 98.5639 115.146Z" fill="#E6E6E6"/>
<path d="M100.499 30.8329H52.4372C51.5194 30.8342 50.6396 31.1994 49.9906 31.8484C49.3416 32.4973 48.9764 33.3772 48.9751 34.295V91.9289C48.9764 92.8467 49.3416 93.7265 49.9906 94.3755C50.6396 95.0245 51.5194 95.3897 52.4372 95.391H100.499C101.417 95.39 102.297 95.0249 102.946 94.3759C103.595 93.7268 103.961 92.8468 103.961 91.9289V34.295C103.961 33.3771 103.595 32.497 102.946 31.848C102.297 31.1989 101.417 30.8338 100.499 30.8329ZM103.554 91.9289C103.553 92.7387 103.231 93.5152 102.658 94.0878C102.086 94.6605 101.309 94.9827 100.499 94.9837H52.4372C51.6273 94.9827 50.8509 94.6605 50.2782 94.0878C49.7055 93.5152 49.3834 92.7387 49.3824 91.9289V34.295C49.3834 33.4851 49.7055 32.7087 50.2782 32.136C50.8509 31.5633 51.6273 31.2412 52.4372 31.2402H100.499C101.309 31.2412 102.086 31.5633 102.658 32.136C103.231 32.7087 103.553 33.4851 103.554 34.295V91.9289Z" fill="#3F3D56"/>
<path d="M55.1011 44.2501C55.1011 42.6062 56.4353 41.272 58.0793 41.272H69.992C71.6359 41.272 72.9701 42.6062 72.9701 44.2501V56.1629C72.9701 57.8068 71.6359 59.141 69.992 59.141H58.0793C57.2894 59.141 56.5319 58.8273 55.9734 58.2687C55.4148 57.7102 55.1011 56.9527 55.1011 56.1629V44.2501ZM55.1011 70.061C55.1011 68.4171 56.4353 67.0828 58.0793 67.0828H69.992C71.6359 67.0828 72.9701 68.4171 72.9701 70.061V81.9737C72.9701 83.6177 71.6359 84.9519 69.992 84.9519H58.0793C57.2894 84.9519 56.5319 84.6381 55.9734 84.0796C55.4148 83.5211 55.1011 82.7636 55.1011 81.9737V70.061ZM80.9119 44.2501C80.9119 42.6062 82.2462 41.272 83.8901 41.272H95.8028C97.4468 41.272 98.781 42.6062 98.781 44.2501V56.1629C98.781 57.8068 97.4468 59.141 95.8028 59.141H83.8901C83.1002 59.141 82.3427 58.8273 81.7842 58.2687C81.2257 57.7102 80.9119 56.9527 80.9119 56.1629V44.2501Z" stroke="#3F3D56" stroke-width="3.9709" stroke-linecap="round" stroke-linejoin="round"/>
<path d="M63.043 49.2138H65.0284V51.1992H63.043V49.2138ZM63.043 75.0246H65.0284V77.0101H63.043V75.0246ZM88.8538 49.2138H90.8393V51.1992H88.8538V49.2138ZM80.912 67.0828H82.8975V69.0683H80.912V67.0828ZM80.912 82.9664H82.8975V84.9519H80.912V82.9664ZM96.7956 67.0828H98.7811V69.0683H96.7956V67.0828ZM96.7956 82.9664H98.7811V84.9519H96.7956V82.9664ZM88.8538 75.0246H90.8393V77.0101H88.8538V75.0246Z" stroke="#14BA6D" stroke-width="3.9709" stroke-linecap="round" stroke-linejoin="round"/>
<path d="M75.3858 138.009C79.3182 138.009 82.506 134.821 82.506 130.889C82.506 126.957 79.3182 123.769 75.3858 123.769C71.4534 123.769 68.2656 126.957 68.2656 130.889C68.2656 134.821 71.4534 138.009 75.3858 138.009Z" fill="#14BA6D"/>
<path d="M74.7074 133.895L72.5762 131.154L73.8156 130.191L74.8246 131.488L78.2335 127.89L79.3733 128.969L74.7074 133.895Z" fill="white"/>
</svg>
