<svg width="197" height="163" viewBox="0 0 197 163" fill="none" xmlns="http://www.w3.org/2000/svg">
<path d="M159.929 16.9816C161.183 11.8666 159.99 5.90134 155.939 2.53687C155.859 8.26347 153.757 13.7775 150.004 18.1033C148.55 19.7664 146.761 21.4647 146.69 23.6724C146.646 25.046 147.317 26.3654 148.241 27.3827C149.165 28.4 150.33 29.1614 151.482 29.9111L151.651 30.2096C155.359 26.4695 158.675 22.0966 159.929 16.9816Z" fill="#F0F0F0"/>
<path d="M155.857 2.61155C157.411 6.68436 157.642 11.1432 156.518 15.3549C156.292 16.2658 155.923 17.1355 155.427 17.9318C154.918 18.6918 154.214 19.3017 153.39 19.6981C152.629 20.0831 151.805 20.3888 151.151 20.9521C150.82 21.2455 150.555 21.6054 150.373 22.0084C150.191 22.4113 150.097 22.8481 150.096 23.2902C150.064 24.3916 150.43 25.4387 150.824 26.4502C151.261 27.5733 151.732 28.7329 151.631 29.9626C151.619 30.1116 151.851 30.1218 151.863 29.9731C152.039 27.8337 150.586 26.0266 150.355 23.9516C150.248 22.9833 150.431 21.9768 151.147 21.2708C151.773 20.6535 152.622 20.3376 153.396 19.9544C154.206 19.5795 154.912 19.012 155.452 18.3015C155.988 17.5331 156.389 16.679 156.638 15.776C157.232 13.752 157.503 11.6473 157.443 9.53889C157.387 7.13224 156.921 4.75283 156.063 2.50358C156.01 2.36439 155.804 2.47327 155.857 2.61155Z" fill="white"/>
<path d="M156.96 14.0201C157.692 14.1128 158.433 13.9423 159.051 13.5389C159.669 13.1355 160.124 12.5255 160.334 11.8179C160.376 11.6746 160.155 11.6026 160.113 11.7461C159.919 12.4054 159.495 12.9736 158.919 13.348C158.343 13.7225 157.651 13.8786 156.97 13.7882C156.822 13.7687 156.812 14.0007 156.96 14.0201Z" fill="white"/>
<path d="M153.801 19.5538C152.866 18.3696 152.412 16.8766 152.529 15.3723C152.541 15.2233 152.309 15.213 152.297 15.3618C152.178 16.9274 152.654 18.4802 153.63 19.7103C153.723 19.8275 153.894 19.6703 153.801 19.5538Z" fill="white"/>
<path d="M138.417 5.84811C138.473 5.92361 138.528 5.99911 138.582 6.07648C139.317 7.09533 139.968 8.17222 140.529 9.2965C140.573 9.38275 140.617 9.47081 140.66 9.55815C141.981 12.2812 142.786 15.226 143.033 18.2428C143.13 19.4434 143.136 20.6496 143.05 21.851C142.931 23.5101 142.67 25.2997 143.094 26.8554C143.136 27.0182 143.189 27.1782 143.251 27.3345L151.274 30.3927C151.296 30.3905 151.317 30.3902 151.339 30.388L151.654 30.5248C151.662 30.4631 151.67 30.399 151.679 30.3373C151.684 30.3016 151.687 30.2652 151.693 30.2294C151.696 30.2054 151.698 30.1813 151.702 30.1598C151.703 30.1518 151.704 30.1437 151.705 30.1376C151.709 30.116 151.71 30.0956 151.713 30.0759C151.758 29.7176 151.8 29.3583 151.839 28.998C151.84 28.9962 151.84 28.9962 151.839 28.9937C152.166 26.2517 152.167 23.4806 151.841 20.7385C151.83 20.6568 151.82 20.5733 151.805 20.4902C151.637 19.267 151.368 18.0597 151.003 16.8803C150.801 16.2351 150.566 15.6006 150.3 14.9791C149.609 13.3747 148.67 11.889 147.517 10.5765C145.218 7.96031 142.109 6.10833 138.68 5.86419C138.592 5.85801 138.506 5.85245 138.417 5.84811Z" fill="#F0F0F0"/>
<path d="M138.397 5.95689C142.09 8.27327 144.959 11.6943 146.597 15.7341C146.965 16.5975 147.194 17.5135 147.277 18.4485C147.328 19.3618 147.134 20.2722 146.714 21.085C146.338 21.8508 145.865 22.5905 145.682 23.4344C145.594 23.8677 145.599 24.3146 145.697 24.7458C145.794 25.177 145.982 25.5828 146.247 25.9364C146.885 26.8349 147.807 27.4505 148.731 28.0213C149.756 28.6549 150.83 29.2969 151.49 30.3395C151.57 30.4658 151.761 30.3344 151.681 30.2083C150.534 28.3943 148.286 27.8262 146.852 26.3082C146.183 25.5998 145.724 24.6856 145.871 23.6909C145.999 22.8211 146.486 22.0579 146.874 21.2858C147.295 20.4989 147.517 19.6208 147.52 18.7283C147.485 17.7922 147.291 16.8688 146.946 15.9978C146.202 14.0244 145.151 12.1804 143.834 10.5333C142.341 8.64515 140.535 7.02636 138.496 5.74696C138.37 5.66782 138.272 5.87827 138.397 5.95689Z" fill="white"/>
<path d="M146.146 14.4022C146.787 14.0354 147.276 13.4529 147.526 12.7587C147.777 12.0645 147.773 11.3038 147.514 10.6124C147.462 10.4727 147.242 10.5481 147.295 10.688C147.537 11.3314 147.541 12.04 147.306 12.686C147.071 13.3319 146.613 13.8727 146.015 14.2108C145.885 14.2844 146.017 14.4754 146.146 14.4022Z" fill="white"/>
<path d="M146.956 20.7219C145.496 20.3393 144.234 19.4207 143.422 18.1492C143.342 18.0232 143.15 18.1545 143.231 18.2804C144.078 19.602 145.393 20.5553 146.913 20.95C147.058 20.9875 147.1 20.7592 146.956 20.7219Z" fill="white"/>
<path d="M142.195 8.91627C141.977 9.10983 141.714 9.24616 141.43 9.31301C141.146 9.37986 140.85 9.37513 140.568 9.29925C140.424 9.2599 140.382 9.48834 140.525 9.52743C140.837 9.60981 141.164 9.61463 141.478 9.54147C141.792 9.46831 142.083 9.3194 142.326 9.10774C142.351 9.08971 142.367 9.063 142.373 9.03303C142.379 9.00306 142.373 8.97209 142.356 8.9464C142.339 8.92114 142.312 8.9038 142.282 8.89816C142.251 8.89252 142.22 8.89902 142.195 8.91627Z" fill="white"/>
<path d="M127.809 121.389C100.91 121.389 79.0269 99.5053 79.0269 72.6068C79.0269 45.7082 100.91 23.8246 127.809 23.8246C130.653 23.8243 133.491 24.0702 136.293 24.5597C136.327 24.5658 136.361 24.5786 136.391 24.5976C136.421 24.6165 136.447 24.6412 136.467 24.6702C136.487 24.6992 136.502 24.7319 136.51 24.7665C136.517 24.8011 136.518 24.8369 136.512 24.8718C136.506 24.9067 136.493 24.9401 136.474 24.97C136.455 24.9999 136.43 25.0257 136.401 25.0461C136.372 25.0664 136.339 25.0808 136.305 25.0884C136.27 25.0961 136.234 25.0968 136.199 25.0906C133.429 24.6066 130.622 24.3633 127.809 24.3636C101.208 24.3636 79.5659 46.0054 79.5659 72.6068C79.5659 99.2082 101.208 120.85 127.809 120.85C154.41 120.85 176.052 99.2082 176.052 72.6068C176.064 60.5832 171.574 48.9908 163.467 40.1117C163.419 40.0588 163.395 39.9892 163.398 39.918C163.402 39.8469 163.433 39.78 163.486 39.7321C163.538 39.6841 163.608 39.6589 163.679 39.6619C163.75 39.665 163.817 39.6961 163.865 39.7485C172.063 48.7268 176.603 60.4488 176.591 72.6068C176.591 99.5053 154.708 121.389 127.809 121.389Z" fill="#E4E4E4"/>
<path d="M149.318 40.5552C154.649 40.5552 158.97 36.234 158.97 30.9036C158.97 25.5732 154.649 21.252 149.318 21.252C143.988 21.252 139.667 25.5732 139.667 30.9036C139.667 36.234 143.988 40.5552 149.318 40.5552Z" fill="#14BA6D"/>
<path d="M148.002 35.9268C147.835 35.9268 147.67 35.888 147.521 35.8134C147.372 35.7388 147.243 35.6306 147.143 35.4972L144.51 31.9864C144.425 31.8736 144.363 31.7452 144.329 31.6087C144.294 31.4721 144.286 31.33 144.306 31.1904C144.326 31.0508 144.373 30.9166 144.445 30.7952C144.517 30.6739 144.612 30.568 144.724 30.4834C144.837 30.3988 144.966 30.3372 145.102 30.3023C145.239 30.2673 145.381 30.2595 145.52 30.2795C145.66 30.2994 145.794 30.3467 145.916 30.4185C146.037 30.4903 146.143 30.5853 146.227 30.6981L147.95 32.9948L152.375 26.3583C152.533 26.1223 152.778 25.9588 153.057 25.9035C153.336 25.8482 153.625 25.9057 153.861 26.0633C154.098 26.2209 154.262 26.4658 154.318 26.7444C154.375 27.023 154.318 27.3124 154.161 27.5494L148.895 35.4487C148.8 35.5915 148.672 35.7095 148.521 35.7926C148.371 35.8757 148.203 35.9216 148.031 35.9264C148.021 35.9266 148.011 35.9268 148.002 35.9268Z" fill="white"/>
<path d="M126.553 65.0364L111.67 23.6306L112.047 23.4949L109.31 15.8793L108.933 16.0151L104.363 3.30226C104.192 2.82745 103.93 2.3909 103.59 2.01754C103.251 1.64418 102.841 1.34133 102.385 1.12627C101.928 0.911205 101.434 0.788147 100.93 0.764123C100.426 0.740099 99.9223 0.815579 99.4475 0.98625L72.5411 10.6579C72.0663 10.8285 71.6298 11.091 71.2564 11.4304C70.883 11.7698 70.5802 12.1794 70.3651 12.6358C70.15 13.0922 70.0269 13.5865 70.0029 14.0905C69.9789 14.5945 70.0543 15.0983 70.225 15.5731L73.4113 24.4372L72.8149 24.6669L74.8489 29.9486L75.3263 29.7647L75.7486 30.9396L75.2405 31.1353L77.2745 36.417L77.6636 36.2671L92.4157 77.3072C92.5856 77.7826 92.8477 78.2198 93.1869 78.5937C93.5261 78.9675 93.9358 79.2708 94.3925 79.486C94.8491 79.7011 95.3438 79.824 95.8481 79.8476C96.3524 79.8712 96.8563 79.795 97.3311 79.6233L124.237 69.9517C125.196 69.6061 125.977 68.8944 126.412 67.973C126.846 67.0515 126.897 65.9954 126.553 65.0364Z" fill="#3F3D56"/>
<path d="M95.9166 78.2587C95.5377 78.2578 95.1683 78.1403 94.8585 77.9222C94.5487 77.704 94.3136 77.3957 94.1852 77.0393L71.7603 14.6536C71.5952 14.1941 71.6194 13.6879 71.8275 13.2462C72.0356 12.8045 72.4106 12.4636 72.8701 12.2984L78.5949 10.2406L78.5864 10.4409C78.5717 10.7886 78.6427 11.1345 78.7932 11.4483C78.9437 11.7621 79.1691 12.034 79.4495 12.2402C79.7299 12.4463 80.0566 12.5803 80.401 12.6304C80.7454 12.6805 81.0968 12.6452 81.4243 12.5275L94.1294 7.96063C94.4361 7.82011 94.7054 7.60938 94.9155 7.34549C95.1256 7.08159 95.2707 6.77194 95.3389 6.44158C95.4065 6.11673 95.3962 5.78051 95.3091 5.46037C95.2219 5.14022 95.0603 4.84522 94.8374 4.59945L94.7033 4.45034L100.617 2.32463C101.076 2.16015 101.582 2.18462 102.024 2.39268C102.465 2.60074 102.806 2.97541 102.972 3.43453L124.367 62.9557C124.804 64.175 124.739 65.5178 124.187 66.6893C123.635 67.8609 122.641 68.7657 121.422 69.2052L96.5406 78.1492C96.3405 78.2214 96.1294 78.2585 95.9166 78.2587Z" fill="white"/>
<path d="M93.7247 34.0097C97.7436 34.0097 101.002 30.7517 101.002 26.7328C101.002 22.7139 97.7436 19.4559 93.7247 19.4559C89.7057 19.4559 86.4478 22.7139 86.4478 26.7328C86.4478 30.7517 89.7057 34.0097 93.7247 34.0097Z" fill="#14BA6D"/>
<path d="M111.757 37.3152L86.5568 46.3735C86.4781 46.402 86.3945 46.4147 86.3109 46.4109C86.2273 46.407 86.1453 46.3867 86.0695 46.3511C85.9937 46.3156 85.9257 46.2654 85.8694 46.2035C85.813 46.1415 85.7695 46.0691 85.7411 45.9903C85.7128 45.9116 85.7003 45.828 85.7044 45.7444C85.7084 45.6608 85.7289 45.5788 85.7646 45.5031C85.8004 45.4274 85.8507 45.3595 85.9128 45.3033C85.9748 45.2471 86.0474 45.2037 86.1262 45.1755L111.326 36.1172C111.485 36.0606 111.66 36.0692 111.812 36.1413C111.965 36.2133 112.082 36.3428 112.139 36.5014C112.196 36.66 112.188 36.8347 112.116 36.9873C112.045 37.1398 111.915 37.2577 111.757 37.3152Z" fill="#E6E6E6"/>
<path d="M104.273 43.0586L95.9839 46.0381C95.9052 46.0666 95.8216 46.0793 95.738 46.0754C95.6544 46.0715 95.5724 46.0512 95.4967 46.0156C95.4209 45.98 95.3529 45.9298 95.2966 45.8679C95.2403 45.806 95.1967 45.7336 95.1684 45.6548C95.1401 45.5761 95.1276 45.4925 95.1316 45.4089C95.1356 45.3253 95.1561 45.2433 95.1919 45.1676C95.2276 45.092 95.2779 45.0241 95.3399 44.9679C95.4019 44.9117 95.4744 44.8682 95.5533 44.8401L103.842 41.8605C104.001 41.8034 104.176 41.8118 104.329 41.8837C104.482 41.9557 104.6 42.0854 104.657 42.2442C104.714 42.4031 104.705 42.5782 104.633 42.7309C104.562 42.8836 104.432 43.0015 104.273 43.0586Z" fill="#E6E6E6"/>
<path d="M106.245 48.5434L97.9559 51.523C97.8772 51.5512 97.7937 51.5638 97.7102 51.5598C97.6267 51.5558 97.5449 51.5354 97.4692 51.4998C97.3936 51.4641 97.3257 51.414 97.2695 51.3521C97.2133 51.2903 97.1698 51.2179 97.1415 51.1393C97.1132 51.0606 97.1007 50.9771 97.1047 50.8936C97.1087 50.8101 97.1291 50.7282 97.1647 50.6526C97.2003 50.577 97.2505 50.5091 97.3124 50.4529C97.3742 50.3967 97.4466 50.3532 97.5252 50.3249L105.814 47.3454C105.973 47.2882 106.148 47.2966 106.301 47.3685C106.454 47.4405 106.572 47.5702 106.629 47.7291C106.686 47.8879 106.677 48.063 106.605 48.2157C106.533 48.3684 106.404 48.4863 106.245 48.5434Z" fill="#E6E6E6"/>
<path d="M107.255 51.3527L98.9657 54.3323C98.887 54.3608 98.8034 54.3735 98.7198 54.3697C98.6361 54.3659 98.554 54.3456 98.4782 54.31C98.4025 54.2744 98.3344 54.2242 98.2781 54.1623C98.2217 54.1004 98.1782 54.0279 98.1498 53.9491C98.1215 53.8703 98.109 53.7867 98.113 53.7031C98.1171 53.6195 98.1376 53.5375 98.1734 53.4618C98.2092 53.3861 98.2595 53.3182 98.3216 53.262C98.3836 53.2058 98.4562 53.1624 98.5351 53.1343L106.824 50.1547C106.903 50.1262 106.986 50.1135 107.07 50.1174C107.154 50.1212 107.236 50.1415 107.311 50.1771C107.387 50.2127 107.455 50.2629 107.512 50.3248C107.568 50.3867 107.611 50.4591 107.64 50.5379C107.668 50.6167 107.681 50.7003 107.677 50.7839C107.673 50.8675 107.652 50.9495 107.616 51.0252C107.581 51.1009 107.53 51.1688 107.468 51.225C107.406 51.2812 107.334 51.3246 107.255 51.3527Z" fill="#E6E6E6"/>
<path d="M109.893 44.0915L92.3068 50.4131C92.2281 50.4416 92.1445 50.4543 92.0609 50.4505C91.9773 50.4466 91.8953 50.4263 91.8195 50.3907C91.7437 50.3551 91.6757 50.3049 91.6194 50.243C91.563 50.1811 91.5195 50.1087 91.4912 50.0299C91.4628 49.9511 91.4503 49.8676 91.4544 49.784C91.4584 49.7003 91.4789 49.6183 91.5146 49.5427C91.5504 49.467 91.6008 49.3991 91.6628 49.3429C91.7248 49.2867 91.7974 49.2433 91.8762 49.2151L109.463 42.8935C109.542 42.865 109.625 42.8523 109.709 42.8562C109.792 42.86 109.874 42.8803 109.95 42.9159C110.026 42.9515 110.094 43.0017 110.15 43.0636C110.207 43.1255 110.25 43.1979 110.278 43.2767C110.307 43.3555 110.319 43.4391 110.315 43.5227C110.311 43.6063 110.291 43.6883 110.255 43.764C110.219 43.8397 110.169 43.9076 110.107 43.9638C110.045 44.02 109.972 44.0634 109.893 44.0915Z" fill="#E6E6E6"/>
<path d="M106.351 58.1723L103.341 59.2542C103.071 59.351 102.774 59.3367 102.514 59.2143C102.255 59.0919 102.054 58.8715 101.957 58.6015C101.86 58.3315 101.874 58.0339 101.997 57.7743C102.119 57.5147 102.339 57.3143 102.609 57.217L105.619 56.1351C105.889 56.0383 106.186 56.0526 106.446 56.175C106.705 56.2974 106.906 56.5178 107.003 56.7879C107.1 57.0579 107.086 57.3554 106.964 57.615C106.841 57.8746 106.621 58.0751 106.351 58.1723Z" fill="#14BA6D"/>
<path d="M82.6334 10.4424C82.8646 10.4424 83.052 10.255 83.052 10.0238C83.052 9.79265 82.8646 9.60526 82.6334 9.60526C82.4022 9.60526 82.2148 9.79265 82.2148 10.0238C82.2148 10.255 82.4022 10.4424 82.6334 10.4424Z" fill="white"/>
<path d="M34.499 33.5641C39.19 28.0422 46.8015 24.5622 53.8187 26.3664C47.4986 31.0716 43.0464 37.8607 41.25 45.5325C40.5679 48.4937 40.1176 51.8583 37.7134 53.7167C36.2175 54.8731 34.206 55.1892 32.327 54.9793C30.4479 54.7694 28.6593 54.0838 26.8949 53.4041L26.4258 53.4562C27.6058 46.3074 29.8079 39.086 34.499 33.5641Z" fill="#F0F0F0"/>
<path d="M53.8006 26.5174C48.0075 28.0687 42.8504 31.406 39.062 36.0551C38.2287 37.0415 37.556 38.1531 37.0688 39.3489C36.6319 40.5292 36.5189 41.8049 36.7418 43.0435C36.9263 44.2026 37.2493 45.3668 37.1489 46.5506C37.0885 47.1558 36.9009 47.7413 36.5983 48.2689C36.2957 48.7965 35.8851 49.2542 35.3932 49.6119C34.1908 50.5351 32.7284 50.9712 31.2835 51.3481C29.6792 51.7664 28.0062 52.1756 26.7169 53.2795C26.5606 53.4133 26.3622 53.1631 26.5182 53.0295C28.7615 51.1088 31.9474 51.2717 34.4465 49.8556C35.6126 49.1948 36.5867 48.1787 36.7965 46.8114C36.98 45.6158 36.6479 44.415 36.4509 43.243C36.2158 42.0378 36.2794 40.7935 36.6361 39.6186C37.0608 38.4018 37.6895 37.2661 38.4953 36.2603C40.2732 33.9669 42.4006 31.9672 44.7996 30.3347C47.5273 28.4563 50.5562 27.0583 53.7553 26.2012C53.9533 26.1483 53.9973 26.4648 53.8006 26.5174Z" fill="white"/>
<path d="M40.1939 34.4863C39.5002 33.7448 39.0926 32.7808 39.044 31.7666C38.9954 30.7523 39.3089 29.7538 39.9285 28.9493C40.0544 28.787 40.3126 28.975 40.1865 29.1376C39.6081 29.8857 39.3162 30.8158 39.3634 31.7602C39.4106 32.7046 39.7938 33.601 40.4439 34.2877C40.585 34.437 40.3342 34.6348 40.1939 34.4863Z" fill="white"/>
<path d="M36.5707 42.4681C38.6446 42.5557 40.6753 41.8584 42.258 40.5153C42.4147 40.3821 42.6131 40.6323 42.4566 40.7653C40.8071 42.16 38.6923 42.8813 36.5344 42.7854C36.3287 42.7761 36.3661 42.4589 36.5707 42.4681Z" fill="white"/>
<path d="M47.6088 28.8717C47.8174 29.2146 48.108 29.5002 48.4543 29.703C48.8006 29.9058 49.1919 30.0195 49.593 30.0337C49.7986 30.0404 49.761 30.3576 49.5566 30.3509C49.1136 30.3332 48.6816 30.2072 48.2985 29.9839C47.9154 29.7607 47.5927 29.4471 47.3588 29.0704C47.3337 29.0367 47.3225 28.9948 47.3272 28.9531C47.332 28.9115 47.3525 28.8732 47.3845 28.846C47.4177 28.8199 47.4599 28.8079 47.5019 28.8127C47.5439 28.8176 47.5823 28.8388 47.6088 28.8717Z" fill="white"/>
<path d="M64.2524 48.5686C64.1239 48.5681 63.9953 48.5675 63.8652 48.5692C62.1368 48.5713 60.4114 48.7137 58.7061 48.9952C58.5739 49.0149 58.4402 49.0368 58.3089 49.0602C54.2076 49.7821 50.276 51.2592 46.7139 53.4163C45.2973 54.276 43.9481 55.2422 42.678 56.3066C40.9241 57.7767 39.1394 59.5101 37.0634 60.2919C36.8477 60.3759 36.627 60.4464 36.4026 60.5031L26.5249 54.0245C26.5098 53.9985 26.4932 53.9747 26.478 53.9486L26.0718 53.708C26.1334 53.6485 26.1987 53.5882 26.2604 53.5287C26.296 53.4941 26.3338 53.4609 26.3694 53.4262C26.3939 53.4036 26.4185 53.381 26.4392 53.3592C26.4473 53.3516 26.4555 53.3441 26.4622 53.3388C26.483 53.3169 26.5046 53.2989 26.5239 53.2793C26.8876 52.9409 27.2543 52.6045 27.6241 52.2701C27.6256 52.2678 27.6256 52.2678 27.6292 52.267C30.4531 49.726 33.5138 47.3984 36.8306 45.6093C36.9304 45.5555 37.0316 45.4994 37.1359 45.4486C38.6354 44.6505 40.1976 43.9762 41.807 43.4326C42.6892 43.1378 43.5857 42.8878 44.4932 42.6836C46.839 42.1606 49.2524 42.0098 51.6451 42.2367C56.4147 42.6899 60.9863 44.6634 64.0231 48.2893C64.1007 48.3821 64.1763 48.4735 64.2524 48.5686Z" fill="#F0F0F0"/>
<path d="M64.1484 48.6794C58.5889 46.4302 52.462 45.9899 46.638 47.4211C45.3788 47.7069 44.1725 48.1894 43.0635 48.8509C42.0041 49.5302 41.1458 50.4808 40.578 51.6039C40.0275 52.6405 39.5845 53.7646 38.7916 54.6493C38.379 55.0961 37.8766 55.4507 37.3174 55.6898C36.7582 55.9288 36.1547 56.047 35.5466 56.0365C34.0308 56.0497 32.6005 55.5175 31.22 54.9484C29.6871 54.3166 28.105 53.636 26.4109 53.7411C26.2056 53.7539 26.1978 53.4346 26.4028 53.4219C29.3503 53.2389 31.7961 55.2871 34.644 55.6611C35.9729 55.8356 37.3624 55.6107 38.3531 54.6453C39.2195 53.8012 39.6773 52.6425 40.2256 51.5881C40.7635 50.4843 41.5635 49.529 42.5557 48.8057C43.6274 48.0899 44.8131 47.5617 46.062 47.2437C48.8624 46.4829 51.7649 46.1672 54.6633 46.308C57.9721 46.4505 61.2322 47.1579 64.3025 48.3996C64.4925 48.4766 64.3371 48.7558 64.1484 48.6794Z" fill="white"/>
<path d="M48.486 46.8498C48.3785 45.8401 48.6334 44.825 49.2053 43.9859C49.7771 43.1468 50.6286 42.5383 51.6077 42.2691C51.806 42.2152 51.8989 42.5209 51.7004 42.5747C50.7882 42.8238 49.9951 43.3907 49.4642 44.1732C48.9333 44.9556 48.6995 45.9021 48.8052 46.8417C48.8279 47.046 48.5086 47.0529 48.486 46.8498Z" fill="white"/>
<path d="M40.7885 51.0416C42.3916 52.3602 44.4328 53.0261 46.5051 52.9065C46.7104 52.8945 46.7183 53.2137 46.5132 53.2257C44.3565 53.3461 42.2337 52.6488 40.5684 51.273C40.4098 51.1418 40.6307 50.911 40.7885 51.0416Z" fill="white"/>
<path d="M57.7868 46.8314C57.747 47.2308 57.807 47.6338 57.9614 48.0042C58.1158 48.3746 58.3598 48.7009 58.6715 48.9538C58.8317 49.0829 58.6106 49.3135 58.4515 49.1852C58.1084 48.9043 57.8394 48.5436 57.6679 48.1347C57.4964 47.7258 57.4276 47.2811 57.4676 46.8395C57.4679 46.7976 57.4841 46.7573 57.513 46.7269C57.5419 46.6965 57.5813 46.6782 57.6232 46.6758C57.6655 46.675 57.7064 46.6908 57.737 46.72C57.7677 46.7491 57.7856 46.7892 57.7868 46.8314Z" fill="white"/>
<path d="M175.284 139.696C180.399 140.95 186.364 139.758 189.729 135.706C184.002 135.627 178.488 133.525 174.162 129.772C172.499 128.318 170.801 126.528 168.593 126.458C167.22 126.414 165.9 127.084 164.883 128.008C163.866 128.932 163.104 130.098 162.355 131.25L162.056 131.419C165.796 135.127 170.169 138.442 175.284 139.696Z" fill="#F0F0F0"/>
<path d="M189.654 135.625C185.581 137.179 181.122 137.41 176.911 136.285C176 136.059 175.13 135.691 174.334 135.194C173.574 134.685 172.964 133.982 172.568 133.158C172.183 132.396 171.877 131.573 171.314 130.919C171.02 130.588 170.66 130.323 170.257 130.141C169.854 129.959 169.418 129.865 168.975 129.863C167.874 129.832 166.827 130.198 165.815 130.591C164.692 131.028 163.533 131.5 162.303 131.399C162.154 131.387 162.144 131.619 162.293 131.631C164.432 131.807 166.239 130.354 168.314 130.123C169.282 130.016 170.289 130.199 170.995 130.915C171.612 131.541 171.928 132.39 172.311 133.164C172.686 133.974 173.254 134.68 173.964 135.22C174.733 135.756 175.587 136.157 176.49 136.406C178.514 136.999 180.618 137.271 182.727 137.211C185.133 137.155 187.513 136.688 189.762 135.83C189.901 135.777 189.792 135.572 189.654 135.625Z" fill="white"/>
<path d="M178.246 136.727C178.153 137.46 178.324 138.201 178.727 138.819C179.13 139.437 179.74 139.892 180.448 140.102C180.591 140.143 180.663 139.923 180.52 139.881C179.861 139.686 179.292 139.263 178.918 138.687C178.543 138.11 178.387 137.419 178.478 136.738C178.497 136.59 178.265 136.58 178.246 136.727Z" fill="white"/>
<path d="M172.712 133.569C173.896 132.634 175.389 132.18 176.893 132.297C177.042 132.309 177.052 132.077 176.904 132.065C175.338 131.946 173.785 132.422 172.555 133.398C172.438 133.491 172.595 133.662 172.712 133.569Z" fill="white"/>
<path d="M185.005 136.876C184.982 136.585 185.031 136.293 185.149 136.026C185.266 135.759 185.448 135.525 185.679 135.346C185.797 135.255 185.64 135.084 185.522 135.175C185.269 135.374 185.068 135.632 184.937 135.927C184.807 136.221 184.75 136.544 184.773 136.865C184.773 136.896 184.784 136.925 184.804 136.948C184.825 136.97 184.853 136.984 184.884 136.986C184.914 136.988 184.944 136.977 184.967 136.956C184.99 136.935 185.003 136.906 185.005 136.876Z" fill="white"/>
<path d="M186.417 118.185C186.342 118.24 186.266 118.295 186.189 118.35C185.17 119.085 184.093 119.736 182.969 120.296C182.883 120.341 182.795 120.385 182.707 120.427C179.984 121.749 177.04 122.554 174.023 122.801C172.822 122.898 171.616 122.903 170.415 122.817C168.755 122.699 166.966 122.438 165.41 122.862C165.247 122.904 165.087 122.956 164.931 123.019L161.873 131.042C161.875 131.064 161.875 131.085 161.877 131.107L161.741 131.421C161.802 131.43 161.867 131.438 161.928 131.447C161.964 131.452 162 131.455 162.036 131.46C162.06 131.463 162.084 131.466 162.106 131.47C162.114 131.471 162.122 131.472 162.128 131.472C162.149 131.476 162.17 131.478 162.19 131.481C162.548 131.526 162.907 131.567 163.267 131.607C163.269 131.608 163.269 131.608 163.272 131.607C166.014 131.934 168.785 131.934 171.527 131.608C171.609 131.598 171.692 131.588 171.775 131.573C172.998 131.404 174.206 131.136 175.385 130.771C176.03 130.569 176.665 130.334 177.286 130.068C178.891 129.377 180.376 128.437 181.689 127.285C184.305 124.986 186.157 121.876 186.401 118.447C186.407 118.36 186.413 118.274 186.417 118.185Z" fill="#F0F0F0"/>
<path d="M186.309 118.164C183.993 121.857 180.571 124.726 176.532 126.364C175.668 126.732 174.752 126.962 173.817 127.044C172.904 127.096 171.994 126.901 171.181 126.482C170.415 126.106 169.675 125.632 168.831 125.449C168.398 125.362 167.951 125.367 167.52 125.464C167.089 125.562 166.683 125.749 166.329 126.014C165.431 126.652 164.815 127.575 164.245 128.498C163.611 129.523 162.969 130.598 161.926 131.257C161.8 131.337 161.931 131.529 162.058 131.449C163.871 130.301 164.44 128.053 165.958 126.62C166.666 125.951 167.58 125.492 168.575 125.638C169.445 125.766 170.208 126.254 170.98 126.641C171.767 127.062 172.645 127.284 173.537 127.287C174.474 127.253 175.397 127.059 176.268 126.714C178.241 125.969 180.085 124.919 181.732 123.601C183.621 122.108 185.239 120.303 186.519 118.264C186.598 118.137 186.388 118.039 186.309 118.164Z" fill="white"/>
<path d="M177.864 125.913C178.23 126.554 178.813 127.043 179.507 127.294C180.201 127.544 180.962 127.54 181.653 127.282C181.793 127.229 181.718 127.009 181.578 127.062C180.934 127.304 180.226 127.308 179.58 127.073C178.934 126.838 178.393 126.381 178.055 125.782C177.981 125.652 177.79 125.784 177.864 125.913Z" fill="white"/>
<path d="M171.544 126.724C171.926 125.264 172.845 124.002 174.116 123.19C174.243 123.11 174.111 122.918 173.985 122.999C172.664 123.846 171.71 125.161 171.316 126.681C171.278 126.826 171.507 126.868 171.544 126.724Z" fill="white"/>
<path d="M183.349 121.962C183.156 121.744 183.019 121.481 182.952 121.197C182.885 120.913 182.89 120.617 182.966 120.335C183.005 120.191 182.777 120.15 182.738 120.293C182.656 120.604 182.651 120.931 182.724 121.245C182.797 121.559 182.946 121.85 183.158 122.094C183.176 122.118 183.202 122.135 183.232 122.141C183.262 122.146 183.293 122.14 183.319 122.124C183.344 122.106 183.362 122.079 183.367 122.049C183.373 122.019 183.366 121.988 183.349 121.962Z" fill="white"/>
<path d="M195.78 90.5335L187.98 103.659L188.277 103.815L185.635 108.823L185.086 108.532L183.35 111.45L183.781 111.698L180.951 116.598L180.461 116.315L155.01 159.147C154.343 160.267 153.258 161.078 151.994 161.4C150.73 161.721 149.389 161.529 148.267 160.863L100.954 132.75C99.8329 132.083 99.0225 130.998 98.7006 129.734C98.3787 128.469 98.5717 127.129 99.2371 126.007L140.007 57.3939C140.674 56.2731 141.759 55.4628 143.023 55.1409C144.287 54.819 145.628 55.0119 146.75 55.6771L194.063 83.7902C195.184 84.458 195.994 85.5429 196.315 86.8069C196.637 88.071 196.445 89.4112 195.78 90.5335Z" fill="#3F3D56"/>
<path d="M149.953 158.215L102.473 130.003C102.128 129.797 101.878 129.463 101.779 129.073C101.68 128.683 101.739 128.27 101.944 127.924L142.984 58.8548C143.19 58.5094 143.524 58.2597 143.914 58.1605C144.304 58.0613 144.717 58.1207 145.063 58.3257L192.543 86.5376C192.888 86.7434 193.138 87.0778 193.237 87.4675C193.336 87.8571 193.277 88.2703 193.072 88.6162L152.032 157.686C151.826 158.031 151.492 158.281 151.102 158.38C150.712 158.479 150.299 158.42 149.953 158.215Z" fill="white"/>
<path d="M169.457 71.34C169.688 71.34 169.876 71.1526 169.876 70.9214C169.876 70.6903 169.688 70.5029 169.457 70.5029C169.226 70.5029 169.039 70.6903 169.039 70.9214C169.039 71.1526 169.226 71.34 169.457 71.34Z" fill="white"/>
<path d="M166.866 120.817L127.232 97.2673C127.108 97.1941 126.999 97.097 126.912 96.9817C126.826 96.8664 126.763 96.7351 126.727 96.5954C126.691 96.4557 126.683 96.3102 126.703 96.1674C126.724 96.0246 126.772 95.8873 126.846 95.7632C126.92 95.6392 127.017 95.531 127.133 95.4447C127.249 95.3584 127.38 95.2958 127.52 95.2605C127.66 95.2252 127.805 95.2179 127.948 95.2389C128.091 95.2599 128.228 95.3089 128.352 95.3831L167.986 118.933C168.11 119.006 168.219 119.103 168.305 119.218C168.392 119.334 168.455 119.465 168.491 119.605C168.527 119.745 168.535 119.89 168.514 120.033C168.494 120.176 168.445 120.313 168.372 120.437C168.298 120.561 168.2 120.669 168.085 120.756C167.969 120.842 167.838 120.904 167.698 120.94C167.558 120.975 167.412 120.982 167.27 120.961C167.127 120.94 166.99 120.891 166.866 120.817Z" fill="#E6E6E6"/>
<path d="M151.041 117.168L138.004 109.422C137.88 109.348 137.772 109.251 137.686 109.136C137.6 109.021 137.537 108.889 137.502 108.75C137.466 108.611 137.458 108.465 137.479 108.323C137.5 108.181 137.548 108.044 137.622 107.92C137.695 107.796 137.792 107.688 137.908 107.602C138.023 107.516 138.154 107.453 138.293 107.418C138.433 107.382 138.578 107.374 138.72 107.395C138.863 107.416 139 107.464 139.124 107.538L152.16 115.284C152.284 115.357 152.392 115.454 152.478 115.57C152.564 115.685 152.627 115.816 152.663 115.956C152.698 116.095 152.706 116.24 152.685 116.383C152.665 116.525 152.616 116.662 152.543 116.786C152.469 116.909 152.372 117.017 152.257 117.104C152.141 117.19 152.01 117.252 151.871 117.288C151.731 117.323 151.586 117.331 151.444 117.311C151.301 117.29 151.164 117.242 151.041 117.168Z" fill="#E6E6E6"/>
<path d="M145.915 125.794L132.879 118.048C132.629 117.9 132.448 117.658 132.377 117.376C132.305 117.095 132.348 116.796 132.497 116.546C132.645 116.296 132.887 116.116 133.168 116.044C133.45 115.972 133.748 116.015 133.998 116.164L147.035 123.91C147.159 123.984 147.267 124.081 147.353 124.196C147.439 124.311 147.502 124.442 147.537 124.582C147.573 124.721 147.58 124.866 147.56 125.009C147.539 125.151 147.491 125.288 147.417 125.412C147.344 125.536 147.247 125.644 147.131 125.73C147.016 125.816 146.885 125.879 146.746 125.914C146.606 125.95 146.461 125.957 146.319 125.937C146.176 125.916 146.039 125.868 145.915 125.794Z" fill="#E6E6E6"/>
<path d="M143.29 130.213L130.254 122.466C130.13 122.393 130.021 122.296 129.935 122.181C129.848 122.065 129.785 121.934 129.75 121.795C129.714 121.655 129.706 121.51 129.726 121.367C129.747 121.224 129.795 121.087 129.869 120.963C129.943 120.839 130.04 120.731 130.156 120.645C130.271 120.559 130.402 120.496 130.542 120.461C130.682 120.425 130.827 120.418 130.97 120.439C131.112 120.46 131.249 120.508 131.373 120.582L144.41 128.328C144.534 128.402 144.643 128.499 144.73 128.614C144.816 128.729 144.879 128.861 144.915 129C144.951 129.14 144.959 129.286 144.939 129.428C144.918 129.571 144.87 129.709 144.796 129.833C144.722 129.957 144.625 130.065 144.509 130.151C144.394 130.237 144.262 130.3 144.122 130.335C143.982 130.371 143.837 130.378 143.694 130.357C143.551 130.336 143.414 130.287 143.29 130.213Z" fill="#E6E6E6"/>
<path d="M155.825 125.765L128.166 109.33C127.917 109.181 127.738 108.94 127.667 108.659C127.596 108.377 127.639 108.08 127.787 107.831C127.935 107.581 128.176 107.401 128.457 107.329C128.737 107.257 129.035 107.299 129.285 107.446L156.945 123.881C157.069 123.954 157.178 124.051 157.264 124.166C157.351 124.282 157.414 124.413 157.45 124.553C157.486 124.692 157.494 124.838 157.473 124.981C157.453 125.124 157.404 125.261 157.331 125.385C157.257 125.509 157.16 125.617 157.044 125.703C156.928 125.79 156.797 125.852 156.657 125.888C156.517 125.923 156.371 125.93 156.229 125.909C156.086 125.888 155.949 125.839 155.825 125.765Z" fill="#E6E6E6"/>
<path d="M150.553 146.769L145.82 143.956C145.396 143.703 145.089 143.293 144.967 142.814C144.846 142.335 144.919 141.828 145.172 141.403C145.424 140.979 145.834 140.672 146.313 140.55C146.791 140.427 147.299 140.5 147.724 140.752L152.457 143.565C152.882 143.817 153.189 144.228 153.311 144.707C153.433 145.186 153.36 145.694 153.107 146.119C152.855 146.543 152.444 146.851 151.965 146.973C151.486 147.095 150.978 147.021 150.553 146.769Z" fill="#14BA6D"/>
<path d="M159.385 101.102C164.743 101.102 169.087 96.758 169.087 91.3994C169.087 86.0409 164.743 81.6969 159.385 81.6969C154.026 81.6969 149.682 86.0409 149.682 91.3994C149.682 96.758 154.026 101.102 159.385 101.102Z" fill="#14BA6D"/>
<path d="M0.308105 130.827H131.61V54.8109C131.61 54.2414 131.383 53.6953 130.981 53.2926C130.578 52.8899 130.032 52.6633 129.462 52.6627H2.45641C1.88685 52.6633 1.3408 52.8899 0.938057 53.2926C0.535313 53.6953 0.308763 54.2414 0.308105 54.8109V130.827Z" fill="#CACACA"/>
<path d="M127.554 55.6339H4.36475V125.57H127.554V55.6339Z" fill="white"/>
<path d="M0.193848 128.77V138.151C0.193843 138.539 0.270434 138.924 0.419248 139.284C0.568061 139.643 0.786183 139.969 1.06116 140.244C1.33613 140.519 1.66258 140.738 2.02186 140.886C2.38113 141.035 2.7662 141.112 3.15508 141.112H51.6178V159.624H50.974C50.9234 159.624 50.8734 159.634 50.8267 159.654C50.7801 159.673 50.7377 159.701 50.7019 159.737C50.6662 159.773 50.6379 159.815 50.6186 159.862C50.5992 159.909 50.5893 159.959 50.5893 160.009V161.297C50.5893 161.347 50.5992 161.397 50.6186 161.444C50.6379 161.491 50.6662 161.533 50.7019 161.569C50.7377 161.604 50.7801 161.633 50.8267 161.652C50.8734 161.671 50.9234 161.681 50.974 161.681H81.059C81.1095 161.681 81.1595 161.671 81.2062 161.652C81.2528 161.633 81.2952 161.604 81.331 161.569C81.3667 161.533 81.395 161.491 81.4144 161.444C81.4337 161.397 81.4436 161.347 81.4436 161.297V160.009C81.4436 159.959 81.4337 159.909 81.4144 159.862C81.395 159.815 81.3667 159.773 81.331 159.737C81.2952 159.701 81.2528 159.673 81.2062 159.654C81.1595 159.634 81.1095 159.624 81.059 159.624H80.4152V141.112H128.878C129.267 141.112 129.652 141.035 130.011 140.886C130.37 140.738 130.697 140.519 130.972 140.244C131.247 139.97 131.465 139.643 131.614 139.284C131.762 138.925 131.839 138.539 131.839 138.151V128.77L0.193848 128.77Z" fill="#3F3D56"/>
<path d="M109.729 79.0233H51.391C51.0233 79.0233 50.6706 78.8772 50.4105 78.6172C50.1505 78.3571 50.0044 78.0044 50.0044 77.6367C50.0044 77.2689 50.1505 76.9162 50.4105 76.6561C50.6706 76.3961 51.0233 76.25 51.391 76.25H109.729C110.096 76.25 110.449 76.3961 110.709 76.6561C110.969 76.9162 111.115 77.2689 111.115 77.6367C111.115 78.0044 110.969 78.3571 110.709 78.6172C110.449 78.8772 110.096 79.0233 109.729 79.0233Z" fill="#E6E6E6"/>
<path d="M90.1537 85.2829H70.9648C70.5971 85.2829 70.2443 85.1368 69.9843 84.8767C69.7242 84.6167 69.5781 84.264 69.5781 83.8962C69.5781 83.5284 69.7242 83.1757 69.9843 82.9156C70.2443 82.6556 70.5971 82.5095 70.9648 82.5095H90.1537C90.5215 82.5095 90.8742 82.6556 91.1343 82.9156C91.3943 83.1757 91.5404 83.5284 91.5404 83.8962C91.5404 84.264 91.3943 84.6167 91.1343 84.8767C90.8742 85.1368 90.5215 85.2829 90.1537 85.2829Z" fill="#E6E6E6"/>
<path d="M90.1537 97.9801H70.9648C70.5971 97.9801 70.2444 97.834 69.9843 97.574C69.7242 97.3139 69.5781 96.9612 69.5781 96.5934C69.5781 96.2256 69.7242 95.8729 69.9843 95.6128C70.2444 95.3528 70.5971 95.2067 70.9648 95.2067H90.1537C90.5215 95.2067 90.8742 95.3528 91.1343 95.6128C91.3943 95.8729 91.5404 96.2256 91.5404 96.5934C91.5404 96.9612 91.3943 97.3139 91.1343 97.574C90.8742 97.834 90.5215 97.9801 90.1537 97.9801Z" fill="#E6E6E6"/>
<path d="M90.1536 104.483H70.9648C70.7827 104.483 70.6024 104.448 70.4341 104.378C70.2659 104.308 70.113 104.206 69.9843 104.077C69.8555 103.949 69.7534 103.796 69.6837 103.627C69.614 103.459 69.5781 103.279 69.5781 103.097C69.5781 102.915 69.614 102.734 69.6837 102.566C69.7534 102.398 69.8555 102.245 69.9843 102.116C70.113 101.988 70.2659 101.885 70.4341 101.816C70.6024 101.746 70.7827 101.71 70.9648 101.71H90.1536C90.3357 101.71 90.516 101.746 90.6843 101.816C90.8525 101.885 91.0054 101.988 91.1341 102.116C91.2629 102.245 91.365 102.398 91.4347 102.566C91.5044 102.734 91.5403 102.915 91.5403 103.097C91.5403 103.279 91.5044 103.459 91.4347 103.627C91.365 103.796 91.2629 103.949 91.1341 104.077C91.0054 104.206 90.8525 104.308 90.6843 104.378C90.516 104.448 90.3357 104.483 90.1536 104.483Z" fill="#E6E6E6"/>
<path d="M100.915 91.5424H60.2031C59.8353 91.5424 59.4826 91.3963 59.2225 91.1363C58.9625 90.8762 58.8164 90.5235 58.8164 90.1558C58.8164 89.788 58.9625 89.4353 59.2225 89.1753C59.4826 88.9152 59.8353 88.7691 60.2031 88.7691H100.915C101.283 88.7691 101.636 88.9152 101.896 89.1753C102.156 89.4353 102.302 89.788 102.302 90.1558C102.302 90.5235 102.156 90.8762 101.896 91.1363C101.636 91.3963 101.283 91.5424 100.915 91.5424Z" fill="#E6E6E6"/>
<path d="M108.757 117.799H101.79C101.164 117.799 100.564 117.55 100.122 117.108C99.6801 116.666 99.4316 116.066 99.4316 115.441C99.4316 114.815 99.6801 114.216 100.122 113.773C100.564 113.331 101.164 113.083 101.79 113.083H108.757C109.382 113.083 109.982 113.331 110.424 113.773C110.867 114.216 111.115 114.815 111.115 115.441C111.115 116.066 110.867 116.666 110.424 117.108C109.982 117.55 109.382 117.799 108.757 117.799Z" fill="#14BA6D"/>
<path d="M33.0466 100.685C39.7448 100.685 45.1748 95.2546 45.1748 88.5564C45.1748 81.8582 39.7448 76.4283 33.0466 76.4283C26.3484 76.4283 20.9185 81.8582 20.9185 88.5564C20.9185 95.2546 26.3484 100.685 33.0466 100.685Z" fill="#14BA6D"/>
<path d="M174.97 162.182H0.514803C0.429854 162.181 0.348471 162.147 0.28849 162.087C0.228509 162.027 0.194824 161.946 0.194824 161.861C0.194824 161.776 0.228509 161.694 0.28849 161.634C0.348471 161.574 0.429854 161.54 0.514803 161.54H174.97C175.055 161.54 175.136 161.574 175.196 161.634C175.256 161.694 175.29 161.776 175.29 161.861C175.29 161.946 175.256 162.027 175.196 162.087C175.136 162.147 175.055 162.181 174.97 162.182Z" fill="#CACACA"/>
<path d="M65.9024 54.1483C66.1549 54.1483 66.3595 53.9436 66.3595 53.6912C66.3595 53.4387 66.1549 53.2341 65.9024 53.2341C65.65 53.2341 65.4453 53.4387 65.4453 53.6912C65.4453 53.9436 65.65 54.1483 65.9024 54.1483Z" fill="white"/>
</svg>
