<svg xmlns="http://www.w3.org/2000/svg" xmlns:xlink="http://www.w3.org/1999/xlink" width="502" zoomAndPan="magnify" viewBox="0 0 376.5 206.249992" height="275" preserveAspectRatio="xMidYMid meet" version="1.0"><defs><g/><clipPath id="ede3d8aae2"><path d="M 0.433594 0 L 375.570312 0 L 375.570312 205.503906 L 0.433594 205.503906 Z M 0.433594 0 " clip-rule="nonzero"/></clipPath></defs><g clip-path="url(#ede3d8aae2)"><path fill="#ffffff" d="M 0.433594 0 L 376.066406 0 L 376.066406 212.511719 L 0.433594 212.511719 Z M 0.433594 0 " fill-opacity="1" fill-rule="nonzero"/><path fill="#ffffff" d="M 0.433594 0 L 376.066406 0 L 376.066406 205.777344 L 0.433594 205.777344 Z M 0.433594 0 " fill-opacity="1" fill-rule="nonzero"/></g><g fill="#24265d" fill-opacity="1"><g transform="translate(125.377891, 118.615867)"><g><path d="M 9.316406 0 L 15.789062 0 L 21.296875 -14.6875 L 26.761719 0 L 33.234375 0 L 42.136719 -24.097656 L 34.792969 -24.097656 L 31.949219 -16.113281 L 29.558594 -9.316406 L 27.082031 -16.113281 L 24.097656 -24.097656 L 18.453125 -24.097656 L 15.46875 -16.113281 L 12.988281 -9.363281 L 10.601562 -16.113281 L 7.804688 -24.097656 L 0.414062 -24.097656 Z M 9.316406 0 "/></g></g></g><g fill="#24265d" fill-opacity="1"><g transform="translate(167.460096, 118.615867)"><g><path d="M 11.519531 0.460938 C 15.101562 0.460938 18.039062 -0.6875 20.105469 -2.800781 L 20.886719 0 L 26.070312 0 L 26.070312 -14.503906 C 26.070312 -20.886719 21.757812 -24.742188 14.550781 -24.742188 C 8.398438 -24.742188 4.359375 -21.804688 3.488281 -16.570312 L 10.191406 -16.570312 C 10.601562 -18.269531 12.347656 -19.417969 14.597656 -19.417969 C 17.351562 -19.417969 19.234375 -17.855469 19.234375 -15.46875 L 19.234375 -14.367188 L 10.511719 -14.367188 C 5.507812 -14.367188 2.296875 -11.476562 2.296875 -7.023438 C 2.296875 -2.386719 5.828125 0.460938 11.519531 0.460938 Z M 9.179688 -7.296875 C 9.179688 -8.949219 10.558594 -10.007812 12.667969 -10.007812 L 19.277344 -10.007812 C 19.140625 -6.746094 16.617188 -4.542969 13.128906 -4.542969 C 10.742188 -4.542969 9.179688 -5.644531 9.179688 -7.296875 Z M 9.179688 -7.296875 "/></g></g></g><g fill="#24265d" fill-opacity="1"><g transform="translate(199.875189, 118.615867)"><g><path d="M 2.203125 0 L 22.03125 0 L 22.03125 -3.535156 L 7.527344 -3.535156 L 21.757812 -20.929688 L 21.757812 -23.824219 L 2.664062 -23.824219 L 2.664062 -20.289062 L 16.523438 -20.289062 L 2.203125 -2.890625 Z M 2.203125 0 "/></g></g></g><g fill="#24265d" fill-opacity="1"><g transform="translate(223.600869, 118.615867)"><g><path d="M 15.007812 0.597656 C 22.398438 0.597656 27.632812 -4.636719 27.632812 -11.933594 C 27.632812 -19.234375 22.398438 -24.417969 15.007812 -24.417969 C 7.621094 -24.417969 2.386719 -19.234375 2.386719 -11.933594 C 2.386719 -4.636719 7.621094 0.597656 15.007812 0.597656 Z M 6.242188 -11.933594 C 6.242188 -17.121094 9.867188 -20.746094 15.007812 -20.746094 C 20.152344 -20.746094 23.777344 -17.121094 23.777344 -11.933594 C 23.777344 -6.703125 20.152344 -3.121094 15.007812 -3.121094 C 9.867188 -3.121094 6.242188 -6.703125 6.242188 -11.933594 Z M 6.242188 -11.933594 "/></g></g></g><g fill="#24265d" fill-opacity="1"><g transform="translate(253.154751, 118.615867)"><g><path d="M 4.269531 0 L 8.125 0 L 8.125 -23.824219 L 4.269531 -23.824219 Z M 3.074219 -30.753906 C 3.074219 -29.054688 4.316406 -27.769531 6.195312 -27.769531 C 8.078125 -27.769531 9.273438 -29.054688 9.273438 -30.753906 C 9.273438 -32.5 8.078125 -33.785156 6.195312 -33.785156 C 4.316406 -33.785156 3.074219 -32.5 3.074219 -30.753906 Z M 3.074219 -30.753906 "/></g></g></g><g fill="#24265d" fill-opacity="1"><g transform="translate(265.086361, 118.615867)"><g><path d="M 14.550781 0.597656 C 18.40625 0.597656 21.710938 -1.011719 23.867188 -3.671875 L 24.328125 0 L 27.496094 0 L 27.496094 -33.96875 L 23.640625 -33.96875 L 23.640625 -20.472656 C 21.480469 -22.949219 18.269531 -24.417969 14.550781 -24.417969 C 7.480469 -24.417969 2.386719 -19.140625 2.386719 -11.933594 C 2.386719 -4.683594 7.480469 0.597656 14.550781 0.597656 Z M 6.242188 -11.933594 C 6.242188 -17.074219 9.867188 -20.746094 15.007812 -20.746094 C 20.195312 -20.746094 23.777344 -17.074219 23.777344 -11.933594 C 23.777344 -6.746094 20.195312 -3.121094 15.007812 -3.121094 C 9.867188 -3.121094 6.242188 -6.746094 6.242188 -11.933594 Z M 6.242188 -11.933594 "/></g></g></g></svg>